<?xml version="1.0" encoding="UTF-8"?>
<!DOCTYPE svg PUBLIC "-//W3C//DTD SVG 1.1//EN" "http://www.w3.org/Graphics/SVG/1.1/DTD/svg11.dtd">
<svg xmlns="http://www.w3.org/2000/svg" version="1.1" width="1200px" height="1635px" style="shape-rendering:geometricPrecision; text-rendering:geometricPrecision; image-rendering:optimizeQuality; fill-rule:evenodd; clip-rule:evenodd" xmlns:xlink="http://www.w3.org/1999/xlink">
<g><path style="opacity:1" fill="#000000" d="M -0.5,-0.5 C 188.167,-0.5 376.833,-0.5 565.5,-0.5C 358.284,10.244 177.95,84.4107 24.5,222C 16.2983,230.369 7.96497,238.536 -0.5,246.5C -0.5,164.167 -0.5,81.8333 -0.5,-0.5 Z"/></g>
<g><path style="opacity:1" fill="#000000" d="M 625.5,-0.5 C 816.833,-0.5 1008.17,-0.5 1199.5,-0.5C 1199.5,81.5 1199.5,163.5 1199.5,245.5C 1039.9,91.5646 848.564,9.56457 625.5,-0.5 Z"/></g>
<g><path style="opacity:1" fill="#545454" d="M 565.5,-0.5 C 585.5,-0.5 605.5,-0.5 625.5,-0.5C 848.564,9.56457 1039.9,91.5646 1199.5,245.5C 1199.5,249.5 1199.5,253.5 1199.5,257.5C 1025.3,87.1351 815.296,3.96848 569.5,8C 347.031,19.1128 157.031,102.279 -0.5,257.5C -0.5,253.833 -0.5,250.167 -0.5,246.5C 7.96497,238.536 16.2983,230.369 24.5,222C 177.95,84.4107 358.284,10.244 565.5,-0.5 Z"/></g>
<g><path style="opacity:1" fill="#000000" d="M 1199.5,257.5 C 1199.5,290.5 1199.5,323.5 1199.5,356.5C 1087.34,223.82 946.003,136.32 775.5,94C 554.315,46.709 349.648,85.0423 161.5,209C 100.94,251.088 46.9397,300.255 -0.5,356.5C -0.5,323.5 -0.5,290.5 -0.5,257.5C 157.031,102.279 347.031,19.1128 569.5,8C 815.296,3.96848 1025.3,87.1351 1199.5,257.5 Z"/></g>
<g><path style="opacity:1" fill="#000000" d="M 1199.5,367.5 C 1199.5,403.167 1199.5,438.833 1199.5,474.5C 1103.12,326.689 970.457,226.189 801.5,173C 627.188,123.644 457.855,136.977 293.5,213C 171.454,273.181 73.4542,360.347 -0.5,474.5C -0.5,438.833 -0.5,403.167 -0.5,367.5C 63.8762,289.946 139.876,226.446 227.5,177C 399.521,84.6184 581.188,59.285 772.5,101C 926.437,138.178 1057.27,214.012 1165,328.5C 1176.42,340.581 1187.09,353.247 1197,366.5C 1197.67,367.252 1198.5,367.586 1199.5,367.5 Z"/></g>
<g><path style="opacity:1" fill="#545454" d="M 1199.5,356.5 C 1199.5,360.167 1199.5,363.833 1199.5,367.5C 1198.5,367.586 1197.67,367.252 1197,366.5C 1187.09,353.247 1176.42,340.581 1165,328.5C 1057.27,214.012 926.437,138.178 772.5,101C 581.188,59.285 399.521,84.6184 227.5,177C 139.876,226.446 63.8762,289.946 -0.5,367.5C -0.5,363.833 -0.5,360.167 -0.5,356.5C 46.9397,300.255 100.94,251.088 161.5,209C 349.648,85.0423 554.315,46.709 775.5,94C 946.003,136.32 1087.34,223.82 1199.5,356.5 Z"/></g>
<g><path style="opacity:1" fill="#000000" d="M 1199.5,487.5 C 1199.5,544.5 1199.5,601.5 1199.5,658.5C 1144.8,498.623 1043.46,377.79 895.5,296C 751.407,221.955 600.407,203.955 442.5,242C 274.768,288.123 145.935,385.29 56,533.5C 32.2018,573.818 13.3684,616.151 -0.5,660.5C -0.5,603.167 -0.5,545.833 -0.5,488.5C 99.7558,328.823 241.089,223.657 423.5,173C 623.395,125.308 810.062,155.974 983.5,265C 1071.44,324.104 1143.44,398.271 1199.5,487.5 Z"/></g>
<g><path style="opacity:1" fill="#535353" d="M 1199.5,474.5 C 1199.5,478.833 1199.5,483.167 1199.5,487.5C 1143.44,398.271 1071.44,324.104 983.5,265C 810.062,155.974 623.395,125.308 423.5,173C 241.089,223.657 99.7558,328.823 -0.5,488.5C -0.5,483.833 -0.5,479.167 -0.5,474.5C 73.4542,360.347 171.454,273.181 293.5,213C 457.855,136.977 627.188,123.644 801.5,173C 970.457,226.189 1103.12,326.689 1199.5,474.5 Z"/></g>
<g><path style="opacity:1" fill="#535353" d="M 1199.5,658.5 C 1199.5,665.5 1199.5,672.5 1199.5,679.5C 1147.08,510.558 1043.08,383.725 887.5,299C 749.018,229.232 604.018,211.565 452.5,246C 279.484,291.4 147.651,390.9 57,544.5C 32.8498,588.135 13.6832,633.802 -0.5,681.5C -0.5,674.5 -0.5,667.5 -0.5,660.5C 13.3684,616.151 32.2018,573.818 56,533.5C 145.935,385.29 274.768,288.123 442.5,242C 600.407,203.955 751.407,221.955 895.5,296C 1043.46,377.79 1144.8,498.623 1199.5,658.5 Z"/></g>
<g><path style="opacity:1" fill="#000000" d="M 1199.5,679.5 C 1199.5,794.167 1199.5,908.833 1199.5,1023.5C 1144.75,1200.1 1034.75,1330.27 869.5,1414C 726.083,1480.38 578.083,1492.72 425.5,1451C 251.731,1396.52 123.231,1288.69 40,1127.5C 32.5562,1111.71 25.5562,1095.71 19,1079.5C 12.431,1060.75 5.93098,1042.09 -0.5,1023.5C -0.5,909.5 -0.5,795.5 -0.5,681.5C 13.6832,633.802 32.8498,588.135 57,544.5C 147.651,390.9 279.484,291.4 452.5,246C 604.018,211.565 749.018,229.232 887.5,299C 1043.08,383.725 1147.08,510.558 1199.5,679.5 Z"/></g>
<g><path style="opacity:1" fill="#000000" d="M 1015.5,504.5 C 1015.71,505.922 1016.21,507.255 1017,508.5C 1057.88,557.904 1089.21,612.904 1111,673.5C 1115.19,687.862 1119.35,702.195 1123.5,716.5C 1123.41,719.152 1124.08,721.485 1125.5,723.5C 1128.93,736.981 1131.6,750.647 1133.5,764.5C 1133.43,768.425 1134.1,772.091 1135.5,775.5C 1139.26,806.693 1140.93,838.026 1140.5,869.5C 1140.25,879.503 1139.92,889.503 1139.5,899.5C 1138.88,899.611 1138.38,899.944 1138,900.5C 1133.91,944.543 1124.91,987.543 1111,1029.5C 1106.34,1040.65 1102.17,1051.98 1098.5,1063.5C 1037.33,1199.83 937.668,1296.99 799.5,1355C 675.994,1402.02 551.328,1405.35 425.5,1365C 271.571,1309.07 162.404,1205.9 98,1055.5C 84.8311,1021.52 74.6644,986.849 67.5,951.5C 65.3298,942.976 63.9965,934.31 63.5,925.5C 63.1873,920.647 62.5206,915.98 61.5,911.5C 58.5535,876.881 57.8868,842.214 59.5,807.5C 60.4731,805.052 60.8064,802.385 60.5,799.5C 61.9715,795.081 62.6382,790.414 62.5,785.5C 67.9794,740.404 78.9794,696.737 95.5,654.5C 153.372,514.124 252.039,413.29 391.5,352C 530.194,296.763 668.861,296.763 807.5,352C 888.302,387.318 957.636,438.151 1015.5,504.5 Z"/></g>
<g><path style="opacity:1" fill="#525252" d="M 1013.5,496.5 C 1013.46,497.583 1013.13,498.583 1012.5,499.5C 1014.28,500.726 1015.28,502.393 1015.5,504.5C 957.636,438.151 888.302,387.318 807.5,352C 668.861,296.763 530.194,296.763 391.5,352C 252.039,413.29 153.372,514.124 95.5,654.5C 93.6505,655.872 92.3172,655.372 91.5,653C 92.1043,650.532 93.4376,648.532 95.5,647C 94.7476,646.329 94.4142,645.496 94.5,644.5C 141.99,530.498 218.99,441.998 325.5,379C 460.332,303.978 602.332,286.644 751.5,327C 855.761,358.232 943.094,414.732 1013.5,496.5 Z"/></g>
<g><path style="opacity:1" fill="#000000" d="M 1041.5,745.5 C 1044.99,759.784 1047.66,774.117 1049.5,788.5C 1050.75,797.339 1051.75,806.339 1052.5,815.5C 1053.16,834.159 1053.49,852.826 1053.5,871.5C 1053.71,877.878 1053.37,884.211 1052.5,890.5C 1051.41,895.306 1050.74,900.306 1050.5,905.5C 1033.35,1032.21 974.685,1135.04 874.5,1214C 861.263,1223.42 847.93,1232.59 834.5,1241.5C 722.301,1305.94 603.301,1322.1 477.5,1290C 437.403,1278.25 399.403,1261.75 363.5,1240.5C 252.849,1170.49 183.182,1071.49 154.5,943.5C 154.706,940.505 154.04,937.838 152.5,935.5C 142.871,878.411 143.204,821.411 153.5,764.5C 154.768,762.095 155.435,759.428 155.5,756.5C 174.83,667.998 216.497,591.831 280.5,528C 290.668,519.33 300.668,510.497 310.5,501.5C 422.692,412.203 549.692,380.703 691.5,407C 810.46,433.724 904.96,496.557 975,595.5C 1006.12,641.42 1028.29,691.42 1041.5,745.5 Z"/></g>
<g><path style="opacity:1" fill="#525252" d="M 1045.5,745.5 C 1045.25,746.922 1044.42,747.922 1043,748.5C 1042.77,747.263 1042.27,746.263 1041.5,745.5C 1028.29,691.42 1006.12,641.42 975,595.5C 904.96,496.557 810.46,433.724 691.5,407C 549.692,380.703 422.692,412.203 310.5,501.5C 309.244,501.539 308.244,501.039 307.5,500C 309.141,498.871 310.141,497.371 310.5,495.5C 420.852,409.244 545.518,377.744 684.5,401C 824.778,430.715 930.611,507.215 1002,630.5C 1021.83,666.838 1036.33,705.172 1045.5,745.5 Z"/></g>
<g><path style="opacity:1" fill="#000000" d="M 944.5,703.5 C 949.077,713.892 953.077,724.558 956.5,735.5C 956.259,737.898 956.926,739.898 958.5,741.5C 963.888,758.428 967.888,775.761 970.5,793.5C 970.335,796.85 970.502,800.183 971,803.5C 971.232,804.737 971.732,805.737 972.5,806.5C 973.26,812.489 973.927,818.489 974.5,824.5C 975.814,843.499 975.814,862.499 974.5,881.5C 972.696,888.589 971.696,895.923 971.5,903.5C 953.35,1016.35 897.017,1104.52 802.5,1168C 703.199,1228.8 597.532,1242.8 485.5,1210C 411.447,1185.34 350.447,1142.51 302.5,1081.5C 247.311,1009.02 221.311,927.022 224.5,835.5C 224.5,831.5 224.5,827.5 224.5,823.5C 227.18,801.08 231.013,778.746 236,756.5C 240.654,740.195 246.154,724.195 252.5,708.5C 298.383,602.825 376.05,531.325 485.5,494C 596.163,461.582 700.83,474.916 799.5,534C 864.738,575.935 913.071,632.435 944.5,703.5 Z"/></g>
<g><path style="opacity:1" fill="#515151" d="M 946.5,699.5 C 946.66,701.199 946.494,702.866 946,704.5C 945.617,703.944 945.117,703.611 944.5,703.5C 913.071,632.435 864.738,575.935 799.5,534C 700.83,474.916 596.163,461.582 485.5,494C 376.05,531.325 298.383,602.825 252.5,708.5C 251.222,708.218 250.222,707.551 249.5,706.5C 295.464,600.714 373.131,528.881 482.5,491C 595.757,457.365 702.757,471.032 803.5,532C 867.646,573.809 915.313,629.643 946.5,699.5 Z"/></g>
<g><path style="opacity:1" fill="#000000" d="M 889.5,878.5 C 888.479,882.98 887.813,887.647 887.5,892.5C 887.632,895.57 887.299,898.57 886.5,901.5C 877.517,949.465 858.184,992.798 828.5,1031.5C 762.181,1111.96 676.514,1148.8 571.5,1142C 471.519,1129.27 396.019,1079.77 345,993.5C 329.84,965.853 319.34,936.52 313.5,905.5C 313.247,901.96 312.581,898.627 311.5,895.5C 301.393,820.7 316.727,752.034 357.5,689.5C 422.625,599.113 511.292,556.613 623.5,562C 716.607,571.949 789.774,615.116 843,691.5C 870.133,733.06 885.8,778.726 890,828.5C 890.79,845.198 890.623,861.865 889.5,878.5 Z"/></g>
<g><path style="opacity:1" fill="#4d4d4d" d="M 890.5,811.5 C 890.596,817.373 891.263,823.04 892.5,828.5C 894.148,850.897 893.482,873.23 890.5,895.5C 889.388,897.599 888.721,899.933 888.5,902.5C 887.075,904.031 886.409,903.698 886.5,901.5C 887.299,898.57 887.632,895.57 887.5,892.5C 888.268,891.737 888.768,890.737 889,889.5C 889.499,885.848 889.665,882.182 889.5,878.5C 890.623,861.865 890.79,845.198 890,828.5C 885.8,778.726 870.133,733.06 843,691.5C 789.774,615.116 716.607,571.949 623.5,562C 511.292,556.613 422.625,599.113 357.5,689.5C 357.629,687.784 357.962,686.117 358.5,684.5C 411.572,610.269 483.905,568.436 575.5,559C 690.302,553.988 780.468,598.154 846,691.5C 870.021,728.061 884.855,768.061 890.5,811.5 Z"/></g>
<g><path style="opacity:1" fill="#494949" d="M 358.5,684.5 C 357.962,686.117 357.629,687.784 357.5,689.5C 316.727,752.034 301.393,820.7 311.5,895.5C 311.843,897.483 311.176,898.817 309.5,899.5C 298.976,832.279 309.809,768.946 342,709.5C 347.027,700.759 352.527,692.425 358.5,684.5 Z"/></g>
<g><path style="opacity:1" fill="#4f4f4f" d="M 1013.5,496.5 C 1086.9,581.399 1130.07,680.065 1143,792.5C 1144.72,807.119 1145.55,821.786 1145.5,836.5C 1144.79,829.63 1143.96,822.63 1143,815.5C 1141.95,833.642 1141.12,851.642 1140.5,869.5C 1140.93,838.026 1139.26,806.693 1135.5,775.5C 1135.57,771.575 1134.9,767.909 1133.5,764.5C 1131.6,750.647 1128.93,736.981 1125.5,723.5C 1125.59,720.848 1124.92,718.515 1123.5,716.5C 1119.35,702.195 1115.19,687.862 1111,673.5C 1089.21,612.904 1057.88,557.904 1017,508.5C 1016.21,507.255 1015.71,505.922 1015.5,504.5C 1015.28,502.393 1014.28,500.726 1012.5,499.5C 1013.13,498.583 1013.46,497.583 1013.5,496.5 Z"/></g>
<g><path style="opacity:1" fill="#4a4a4a" d="M 946.5,699.5 C 952.81,713.13 958.31,727.13 963,741.5C 976.158,786.762 980.992,832.762 977.5,879.5C 977.667,862.163 977.5,844.83 977,827.5C 976.764,825.881 975.931,824.881 974.5,824.5C 973.927,818.489 973.26,812.489 972.5,806.5C 972.116,801.99 971.449,797.657 970.5,793.5C 967.888,775.761 963.888,758.428 958.5,741.5C 958.741,739.102 958.074,737.102 956.5,735.5C 953.077,724.558 949.077,713.892 944.5,703.5C 945.117,703.611 945.617,703.944 946,704.5C 946.494,702.866 946.66,701.199 946.5,699.5 Z"/></g>
<g><path style="opacity:1" fill="#2b2b2b" d="M 1123.5,716.5 C 1124.92,718.515 1125.59,720.848 1125.5,723.5C 1124.08,721.485 1123.41,719.152 1123.5,716.5 Z"/></g>
<g><path style="opacity:1" fill="#4f4f4f" d="M 94.5,644.5 C 94.4142,645.496 94.7476,646.329 95.5,647C 93.4376,648.532 92.1043,650.532 91.5,653C 92.3172,655.372 93.6505,655.872 95.5,654.5C 78.9794,696.737 67.9794,740.404 62.5,785.5C 61.1985,789.943 60.5319,794.609 60.5,799.5C 60.8064,802.385 60.4731,805.052 59.5,807.5C 59.6657,803.154 59.499,798.821 59,794.5C 58.3292,793.748 57.4959,793.414 56.5,793.5C 61.4029,741.649 74.0695,691.982 94.5,644.5 Z"/></g>
<g><path style="opacity:1" fill="#494949" d="M 249.5,706.5 C 250.222,707.551 251.222,708.218 252.5,708.5C 246.154,724.195 240.654,740.195 236,756.5C 231.013,778.746 227.18,801.08 224.5,823.5C 222.933,824.681 222.099,826.347 222,828.5C 221.5,842.829 221.333,857.163 221.5,871.5C 217.758,814.283 227.092,759.283 249.5,706.5 Z"/></g>
<g><path style="opacity:1" fill="#252525" d="M 956.5,735.5 C 958.074,737.102 958.741,739.102 958.5,741.5C 956.926,739.898 956.259,737.898 956.5,735.5 Z"/></g>
<g><path style="opacity:1" fill="#474747" d="M 1041.5,745.5 C 1042.27,746.263 1042.77,747.263 1043,748.5C 1044.42,747.922 1045.25,746.922 1045.5,745.5C 1047.3,750.618 1048.8,755.951 1050,761.5C 1052.04,771.423 1053.54,781.423 1054.5,791.5C 1053.28,787.228 1051.94,782.895 1050.5,778.5C 1049.51,781.768 1049.18,785.102 1049.5,788.5C 1047.66,774.117 1044.99,759.784 1041.5,745.5 Z"/></g>
<g><path style="opacity:1" fill="#292929" d="M 155.5,756.5 C 155.435,759.428 154.768,762.095 153.5,764.5C 153.294,761.505 153.96,758.838 155.5,756.5 Z"/></g>
<g><path style="opacity:1" fill="#262626" d="M 149.5,763.5 C 149.247,767.04 148.581,770.373 147.5,773.5C 147.336,770.813 147.503,768.146 148,765.5C 148.278,764.584 148.778,763.918 149.5,763.5 Z"/></g>
<g><path style="opacity:1" fill="#282828" d="M 1133.5,764.5 C 1134.9,767.909 1135.57,771.575 1135.5,775.5C 1134.1,772.091 1133.43,768.425 1133.5,764.5 Z"/></g>
<g><path style="opacity:1" fill="#292929" d="M 62.5,785.5 C 62.6382,790.414 61.9715,795.081 60.5,799.5C 60.5319,794.609 61.1985,789.943 62.5,785.5 Z"/></g>
<g><path style="opacity:1" fill="#1c1c1c" d="M 970.5,793.5 C 971.449,797.657 972.116,801.99 972.5,806.5C 971.732,805.737 971.232,804.737 971,803.5C 970.502,800.183 970.335,796.85 970.5,793.5 Z"/></g>
<g><path style="opacity:1" fill="#3b3b3b" d="M 1054.5,793.5 C 1055.88,799.617 1056.55,805.95 1056.5,812.5C 1055,806.395 1054.34,800.062 1054.5,793.5 Z"/></g>
<g><path style="opacity:1" fill="#363636" d="M 890.5,811.5 C 892.012,816.929 892.679,822.596 892.5,828.5C 891.263,823.04 890.596,817.373 890.5,811.5 Z"/></g>
<g><path style="opacity:1" fill="#545454" d="M 1145.5,836.5 C 1146.01,857.564 1145.34,878.564 1143.5,899.5C 1142.78,899.918 1142.28,900.584 1142,901.5C 1141.67,901.167 1141.33,900.833 1141,900.5C 1140.32,901.784 1140.48,902.951 1141.5,904C 1141,904.5 1140.5,905 1140,905.5C 1139.5,903.527 1139.34,901.527 1139.5,899.5C 1139.92,889.503 1140.25,879.503 1140.5,869.5C 1141.12,851.642 1141.95,833.642 1143,815.5C 1143.96,822.63 1144.79,829.63 1145.5,836.5 Z"/></g>
<g><path style="opacity:1" fill="#575757" d="M 224.5,823.5 C 224.5,827.5 224.5,831.5 224.5,835.5C 223.74,846.006 223.073,856.673 222.5,867.5C 222.67,869.529 223.004,871.529 223.5,873.5C 223.253,874.713 222.586,875.38 221.5,875.5C 221.5,874.167 221.5,872.833 221.5,871.5C 221.333,857.163 221.5,842.829 222,828.5C 222.099,826.347 222.933,824.681 224.5,823.5 Z"/></g>
<g><path style="opacity:1" fill="#505050" d="M 1054.5,791.5 C 1054.5,792.167 1054.5,792.833 1054.5,793.5C 1054.34,800.062 1055,806.395 1056.5,812.5C 1059.09,837.629 1059.09,862.629 1056.5,887.5C 1055.27,888.152 1054.61,889.319 1054.5,891C 1053.96,894.828 1053.46,898.661 1053,902.5C 1052.54,901.906 1052.37,901.239 1052.5,900.5C 1052.5,897.167 1052.5,893.833 1052.5,890.5C 1053.37,884.211 1053.71,877.878 1053.5,871.5C 1054.17,865.009 1054.5,858.342 1054.5,851.5C 1054.57,839.304 1053.9,827.304 1052.5,815.5C 1051.75,806.339 1050.75,797.339 1049.5,788.5C 1049.18,785.102 1049.51,781.768 1050.5,778.5C 1051.94,782.895 1053.28,787.228 1054.5,791.5 Z"/></g>
<g><path style="opacity:1" fill="#515151" d="M 56.5,793.5 C 57.4959,793.414 58.3292,793.748 59,794.5C 59.499,798.821 59.6657,803.154 59.5,807.5C 57.8868,842.214 58.5535,876.881 61.5,911.5C 61.1228,916.453 61.7895,921.119 63.5,925.5C 63.9965,934.31 65.3298,942.976 67.5,951.5C 67.665,954.85 67.4983,958.183 67,961.5C 66.6667,959.167 66.3333,956.833 66,954.5C 65.7645,956.119 64.9311,957.119 63.5,957.5C 53.0778,903.141 50.7445,848.474 56.5,793.5 Z"/></g>
<g><path style="opacity:1" fill="#2f2f2f" d="M 1052.5,815.5 C 1053.9,827.304 1054.57,839.304 1054.5,851.5C 1054.5,858.342 1054.17,865.009 1053.5,871.5C 1053.49,852.826 1053.16,834.159 1052.5,815.5 Z"/></g>
<g><path style="opacity:1" fill="#555555" d="M 974.5,824.5 C 975.931,824.881 976.764,825.881 977,827.5C 977.5,844.83 977.667,862.163 977.5,879.5C 976.862,883.427 976.029,887.427 975,891.5C 974.502,888.183 974.335,884.85 974.5,881.5C 975.814,862.499 975.814,843.499 974.5,824.5 Z"/></g>
<g><path style="opacity:1" fill="#333333" d="M 889.5,878.5 C 889.665,882.182 889.499,885.848 889,889.5C 888.768,890.737 888.268,891.737 887.5,892.5C 887.813,887.647 888.479,882.98 889.5,878.5 Z"/></g>
<g><path style="opacity:1" fill="#3e3e3e" d="M 977.5,879.5 C 977.561,890.478 976.228,901.145 973.5,911.5C 974.332,906.519 974.498,901.519 974,896.5C 973.098,898.927 972.264,901.26 971.5,903.5C 971.696,895.923 972.696,888.589 974.5,881.5C 974.335,884.85 974.502,888.183 975,891.5C 976.029,887.427 976.862,883.427 977.5,879.5 Z"/></g>
<g><path style="opacity:1" fill="#323232" d="M 1052.5,890.5 C 1052.5,893.833 1052.5,897.167 1052.5,900.5C 1051.83,902.167 1051.17,903.833 1050.5,905.5C 1050.74,900.306 1051.41,895.306 1052.5,890.5 Z"/></g>
<g><path style="opacity:1" fill="#3a3a3a" d="M 311.5,895.5 C 312.581,898.627 313.247,901.96 313.5,905.5C 312.732,904.737 312.232,903.737 312,902.5C 311.55,906.188 311.717,909.854 312.5,913.5C 311.778,913.082 311.278,912.416 311,911.5C 310.499,907.49 309.999,903.49 309.5,899.5C 311.176,898.817 311.843,897.483 311.5,895.5 Z"/></g>
<g><path style="opacity:1" fill="#2a2a2a" d="M 890.5,895.5 C 890.706,898.495 890.04,901.162 888.5,903.5C 888.5,903.167 888.5,902.833 888.5,902.5C 888.721,899.933 889.388,897.599 890.5,895.5 Z"/></g>
<g><path style="opacity:1" fill="#494949" d="M 886.5,901.5 C 886.409,903.698 887.075,904.031 888.5,902.5C 888.5,902.833 888.5,903.167 888.5,903.5C 879.949,951.814 860.615,995.148 830.5,1033.5C 830.5,1032.17 829.833,1031.5 828.5,1031.5C 858.184,992.798 877.517,949.465 886.5,901.5 Z"/></g>
<g><path style="opacity:1" fill="#222222" d="M 1055.5,903.5 C 1055.67,906.85 1055.5,910.183 1055,913.5C 1054.77,914.737 1054.27,915.737 1053.5,916.5C 1053.77,911.972 1054.44,907.639 1055.5,903.5 Z"/></g>
<g><path style="opacity:1" fill="#373737" d="M 61.5,911.5 C 62.5206,915.98 63.1873,920.647 63.5,925.5C 61.7895,921.119 61.1228,916.453 61.5,911.5 Z"/></g>
<g><path style="opacity:1" fill="#242424" d="M 144.5,911.5 C 146.136,917.603 147.136,923.936 147.5,930.5C 145.547,924.444 144.547,918.111 144.5,911.5 Z"/></g>
<g><path style="opacity:1" fill="#2d2d2d" d="M 147.5,931.5 C 148.913,934.219 149.58,937.219 149.5,940.5C 148.087,937.781 147.42,934.781 147.5,931.5 Z"/></g>
<g><path style="opacity:1" fill="#2d2d2d" d="M 152.5,935.5 C 154.04,937.838 154.706,940.505 154.5,943.5C 153.232,941.095 152.565,938.428 152.5,935.5 Z"/></g>
<g><path style="opacity:1" fill="#4d4d4d" d="M 224.5,835.5 C 221.311,927.022 247.311,1009.02 302.5,1081.5C 300.952,1081.82 300.285,1082.82 300.5,1084.5C 267.856,1043.42 245.023,997.423 232,946.5C 226.569,923.12 223.069,899.454 221.5,875.5C 222.586,875.38 223.253,874.713 223.5,873.5C 223.004,871.529 222.67,869.529 222.5,867.5C 223.073,856.673 223.74,846.006 224.5,835.5 Z"/></g>
<g><path style="opacity:1" fill="#4e4e4e" d="M 1139.5,899.5 C 1139.34,901.527 1139.5,903.527 1140,905.5C 1140.5,905 1141,904.5 1141.5,904C 1140.48,902.951 1140.32,901.784 1141,900.5C 1141.33,900.833 1141.67,901.167 1142,901.5C 1142.28,900.584 1142.78,899.918 1143.5,899.5C 1138.99,956.132 1125.66,1010.47 1103.5,1062.5C 1103.35,1059.28 1102.52,1058.95 1101,1061.5C 1100.67,1061.17 1100.33,1060.83 1100,1060.5C 1099.77,1061.74 1099.27,1062.74 1098.5,1063.5C 1102.17,1051.98 1106.34,1040.65 1111,1029.5C 1124.91,987.543 1133.91,944.543 1138,900.5C 1138.38,899.944 1138.88,899.611 1139.5,899.5 Z"/></g>
<g><path style="opacity:1" fill="#000000" d="M -0.5,1044.5 C 46.9886,1184.67 131.989,1296.17 254.5,1379C 405.422,1474.43 568.422,1503.1 743.5,1465C 911.131,1422.91 1041.46,1329.41 1134.5,1184.5C 1161.13,1139.92 1182.79,1093.26 1199.5,1044.5C 1199.5,1101.5 1199.5,1158.5 1199.5,1215.5C 1099.23,1375.2 957.894,1480.37 775.5,1531C 579.131,1578.38 395.131,1549.38 223.5,1444C 131.772,1384.44 57.1056,1308.27 -0.5,1215.5C -0.5,1158.5 -0.5,1101.5 -0.5,1044.5 Z"/></g>
<g><path style="opacity:1" fill="#505050" d="M 1056.5,887.5 C 1056.53,892.862 1056.19,898.195 1055.5,903.5C 1054.44,907.639 1053.77,911.972 1053.5,916.5C 1034.31,1039.06 976.315,1138.89 879.5,1216C 865.893,1226.11 851.893,1235.61 837.5,1244.5C 837.414,1243.5 837.748,1242.67 838.5,1242C 836.981,1242.33 835.648,1242.16 834.5,1241.5C 847.93,1232.59 861.263,1223.42 874.5,1214C 974.685,1135.04 1033.35,1032.21 1050.5,905.5C 1051.17,903.833 1051.83,902.167 1052.5,900.5C 1052.37,901.239 1052.54,901.906 1053,902.5C 1053.46,898.661 1053.96,894.828 1054.5,891C 1054.61,889.319 1055.27,888.152 1056.5,887.5 Z"/></g>
<g><path style="opacity:1" fill="#4e4e4e" d="M 313.5,905.5 C 319.34,936.52 329.84,965.853 345,993.5C 396.019,1079.77 471.519,1129.27 571.5,1142C 676.514,1148.8 762.181,1111.96 828.5,1031.5C 829.833,1031.5 830.5,1032.17 830.5,1033.5C 764.572,1113.11 679.572,1150.27 575.5,1145C 471.942,1133.51 394.109,1083.01 342,993.5C 328.195,968.269 318.362,941.603 312.5,913.5C 311.717,909.854 311.55,906.188 312,902.5C 312.232,903.737 312.732,904.737 313.5,905.5 Z"/></g>
<g><path style="opacity:1" fill="#505050" d="M 310.5,495.5 C 310.141,497.371 309.141,498.871 307.5,500C 308.244,501.039 309.244,501.539 310.5,501.5C 300.668,510.497 290.668,519.33 280.5,528C 216.497,591.831 174.83,667.998 155.5,756.5C 153.96,758.838 153.294,761.505 153.5,764.5C 143.204,821.411 142.871,878.411 152.5,935.5C 152.565,938.428 153.232,941.095 154.5,943.5C 183.182,1071.49 252.849,1170.49 363.5,1240.5C 360.569,1240.91 359.903,1242.24 361.5,1244.5C 255.919,1178.12 186.753,1084.45 154,963.5C 152.416,955.805 150.916,948.139 149.5,940.5C 149.58,937.219 148.913,934.219 147.5,931.5C 147.5,931.167 147.5,930.833 147.5,930.5C 147.136,923.936 146.136,917.603 144.5,911.5C 138.361,865.203 139.361,819.203 147.5,773.5C 148.581,770.373 149.247,767.04 149.5,763.5C 171.692,655.036 225.358,565.703 310.5,495.5 Z"/></g>
<g><path style="opacity:1" fill="#505050" d="M 973.5,911.5 C 953.195,1026.31 893.862,1114.81 795.5,1177C 697.509,1233.33 594.176,1245.66 485.5,1214C 410.361,1189.63 348.694,1146.47 300.5,1084.5C 300.285,1082.82 300.952,1081.82 302.5,1081.5C 350.447,1142.51 411.447,1185.34 485.5,1210C 597.532,1242.8 703.199,1228.8 802.5,1168C 897.017,1104.52 953.35,1016.35 971.5,903.5C 972.264,901.26 973.098,898.927 974,896.5C 974.498,901.519 974.332,906.519 973.5,911.5 Z"/></g>
<g><path style="opacity:1" fill="#000000" d="M -0.5,1228.5 C 108.384,1396.22 261.051,1502.05 457.5,1546C 630.316,1578.83 793.65,1553.16 947.5,1469C 1051.17,1409.5 1135.17,1329.33 1199.5,1228.5C 1199.5,1264.17 1199.5,1299.83 1199.5,1335.5C 1065.14,1497.38 892.81,1591.54 682.5,1618C 459.497,1638.54 263.164,1576.87 93.5,1433C 59.4987,1402.84 28.1654,1370.34 -0.5,1335.5C -0.5,1299.83 -0.5,1264.17 -0.5,1228.5 Z"/></g>
<g><path style="opacity:1" fill="#525252" d="M 67.5,951.5 C 74.6644,986.849 84.8311,1021.52 98,1055.5C 162.404,1205.9 271.571,1309.07 425.5,1365C 551.328,1405.35 675.994,1402.02 799.5,1355C 937.668,1296.99 1037.33,1199.83 1098.5,1063.5C 1099.27,1062.74 1099.77,1061.74 1100,1060.5C 1100.33,1060.83 1100.67,1061.17 1101,1061.5C 1102.52,1058.95 1103.35,1059.28 1103.5,1062.5C 1048.67,1189.17 959.332,1283.34 835.5,1345C 686.912,1412.67 536.912,1416 385.5,1355C 241.727,1290.23 141.56,1184.4 85,1037.5C 76.5042,1011.19 69.3375,984.52 63.5,957.5C 64.9311,957.119 65.7645,956.119 66,954.5C 66.3333,956.833 66.6667,959.167 67,961.5C 67.4983,958.183 67.665,954.85 67.5,951.5 Z"/></g>
<g><path style="opacity:1" fill="#000000" d="M -0.5,1347.5 C 93.6714,1459.71 210.338,1540.21 349.5,1589C 484.667,1633.86 622,1641.86 761.5,1613C 907.539,1580.33 1034.21,1512.66 1141.5,1410C 1161.01,1389.32 1180.34,1368.49 1199.5,1347.5C 1199.5,1380.5 1199.5,1413.5 1199.5,1446.5C 1118.11,1527.57 1024.11,1590.23 917.5,1634.5C 705.5,1634.5 493.5,1634.5 281.5,1634.5C 203.651,1602.25 131.985,1559.75 66.5,1507C 43.5957,1487.25 21.2623,1467.09 -0.5,1446.5C -0.5,1413.5 -0.5,1380.5 -0.5,1347.5 Z"/></g>
<g><path style="opacity:1" fill="#535353" d="M -0.5,1023.5 C 5.93098,1042.09 12.431,1060.75 19,1079.5C 25.5562,1095.71 32.5562,1111.71 40,1127.5C 123.231,1288.69 251.731,1396.52 425.5,1451C 578.083,1492.72 726.083,1480.38 869.5,1414C 1034.75,1330.27 1144.75,1200.1 1199.5,1023.5C 1199.5,1030.5 1199.5,1037.5 1199.5,1044.5C 1182.79,1093.26 1161.13,1139.92 1134.5,1184.5C 1041.46,1329.41 911.131,1422.91 743.5,1465C 568.422,1503.1 405.422,1474.43 254.5,1379C 131.989,1296.17 46.9886,1184.67 -0.5,1044.5C -0.5,1037.5 -0.5,1030.5 -0.5,1023.5 Z"/></g>
<g><path style="opacity:1" fill="#000000" d="M -0.5,1458.5 C 75.3271,1532.28 161.66,1590.94 258.5,1634.5C 172.167,1634.5 85.8333,1634.5 -0.5,1634.5C -0.5,1575.83 -0.5,1517.17 -0.5,1458.5 Z"/></g>
<g><path style="opacity:1" fill="#000000" d="M 1199.5,1458.5 C 1199.5,1517.17 1199.5,1575.83 1199.5,1634.5C 1112.83,1634.5 1026.17,1634.5 939.5,1634.5C 1036.73,1591.24 1123.39,1532.58 1199.5,1458.5 Z"/></g>
<g><path style="opacity:1" fill="#545454" d="M -0.5,1335.5 C 28.1654,1370.34 59.4987,1402.84 93.5,1433C 263.164,1576.87 459.497,1638.54 682.5,1618C 892.81,1591.54 1065.14,1497.38 1199.5,1335.5C 1199.5,1339.5 1199.5,1343.5 1199.5,1347.5C 1180.34,1368.49 1161.01,1389.32 1141.5,1410C 1034.21,1512.66 907.539,1580.33 761.5,1613C 622,1641.86 484.667,1633.86 349.5,1589C 210.338,1540.21 93.6714,1459.71 -0.5,1347.5C -0.5,1343.5 -0.5,1339.5 -0.5,1335.5 Z"/></g>
<g><path style="opacity:1" fill="#545454" d="M 1199.5,1446.5 C 1199.5,1450.5 1199.5,1454.5 1199.5,1458.5C 1123.39,1532.58 1036.73,1591.24 939.5,1634.5C 932.167,1634.5 924.833,1634.5 917.5,1634.5C 1024.11,1590.23 1118.11,1527.57 1199.5,1446.5 Z"/></g>
<g><path style="opacity:1" fill="#545454" d="M -0.5,1446.5 C 21.2623,1467.09 43.5957,1487.25 66.5,1507C 131.985,1559.75 203.651,1602.25 281.5,1634.5C 273.833,1634.5 266.167,1634.5 258.5,1634.5C 161.66,1590.94 75.3271,1532.28 -0.5,1458.5C -0.5,1454.5 -0.5,1450.5 -0.5,1446.5 Z"/></g>
<g><path style="opacity:1" fill="#535353" d="M -0.5,1215.5 C 57.1056,1308.27 131.772,1384.44 223.5,1444C 395.131,1549.38 579.131,1578.38 775.5,1531C 957.894,1480.37 1099.23,1375.2 1199.5,1215.5C 1199.5,1219.83 1199.5,1224.17 1199.5,1228.5C 1135.17,1329.33 1051.17,1409.5 947.5,1469C 793.65,1553.16 630.316,1578.83 457.5,1546C 261.051,1502.05 108.384,1396.22 -0.5,1228.5C -0.5,1224.17 -0.5,1219.83 -0.5,1215.5 Z"/></g>
<g><path style="opacity:1" fill="#525252" d="M 363.5,1240.5 C 399.403,1261.75 437.403,1278.25 477.5,1290C 603.301,1322.1 722.301,1305.94 834.5,1241.5C 835.648,1242.16 836.981,1242.33 838.5,1242C 837.748,1242.67 837.414,1243.5 837.5,1244.5C 726.272,1309.37 607.939,1326.53 482.5,1296C 439.678,1284.56 399.344,1267.4 361.5,1244.5C 359.903,1242.24 360.569,1240.91 363.5,1240.5 Z"/></g>
<text y="200" style="font-size:{{ font_size }}px;font-weight:bold;fill:{{ color1 }};">
    {%- for line in title|wrap(20) %}
    <tspan font-family="{{ font }}" text-anchor="middle" x="600" dx="0" dy="{{ font_size }}">{{ line }}</tspan>
    {%- endfor %}
</text>
<text y="1555" style="font-size:{{ font_size_author }}px;font-weight:bold;fill:{{ color1 }};">
	{%- for author in authors %}
	<tspan font-family="{{ font }}" text-anchor="middle" x="600" dx="0" dy="-{{ font_size_author }}">{{ author }}</tspan>
	{%- endfor %}
</text>
</svg>
