<?xml version="1.0" encoding="UTF-8"?>
<!DOCTYPE svg PUBLIC "-//W3C//DTD SVG 1.1//EN" "http://www.w3.org/Graphics/SVG/1.1/DTD/svg11.dtd">
<svg xmlns="http://www.w3.org/2000/svg" version="1.1" width="1200px" height="1635px" style="shape-rendering:geometricPrecision; text-rendering:geometricPrecision; image-rendering:optimizeQuality; fill-rule:evenodd; clip-rule:evenodd" xmlns:xlink="http://www.w3.org/1999/xlink">
<g><path style="opacity:1" fill="#e6e4d7" d="M -0.5,-0.5 C 399.5,-0.5 799.5,-0.5 1199.5,-0.5C 1199.5,544.5 1199.5,1089.5 1199.5,1634.5C 799.5,1634.5 399.5,1634.5 -0.5,1634.5C -0.5,1089.5 -0.5,544.5 -0.5,-0.5 Z"/></g>
<g><path style="opacity:1" fill="#33302b" d="M 353.5,453.5 C 332.142,453.502 310.808,454.169 289.5,455.5C 310.777,452.655 332.11,451.988 353.5,453.5 Z"/></g>
<g><path style="opacity:1" fill="#d1cec7" d="M 211.5,509.5 C 208.09,531.063 209.09,552.396 214.5,573.5C 213.504,573.586 212.671,573.252 212,572.5C 211.642,568.743 210.142,565.576 207.5,563C 208.167,562.333 208.833,561.667 209.5,561C 208.153,550.087 207.653,538.92 208,527.5C 208.333,523.833 208.667,520.167 209,516.5C 209.156,513.809 209.989,511.476 211.5,509.5 Z"/></g>
<g><path style="opacity:1" fill="#6a6863" d="M 914.5,687.5 C 919.5,688.167 924.5,688.833 929.5,689.5C 923.158,689.666 916.825,689.5 910.5,689C 911.563,687.812 912.897,687.312 914.5,687.5 Z"/></g>
<g><path style="opacity:1" fill="#b5b3b1" d="M 327.5,832.5 C 319.5,831.833 311.5,831.167 303.5,830.5C 311.36,830.715 319.193,830.382 327,829.5C 331.272,829.44 331.439,830.44 327.5,832.5 Z"/></g>
<g><path style="opacity:1" fill="#151311" d="M 914.5,687.5 C 912.897,687.312 911.563,687.812 910.5,689C 916.825,689.5 923.158,689.666 929.5,689.5C 949.423,689.806 967.423,695.639 983.5,707C 993.244,714.734 999.744,724.567 1003,736.5C 1003.17,739.667 1003.33,742.833 1003.5,746C 1001.92,767.462 1001.08,788.962 1001,810.5C 999.6,813.902 997.433,816.736 994.5,819C 990.52,820.966 986.52,822.966 982.5,825C 975.959,831.872 969.793,839.039 964,846.5C 957.292,853.438 949.126,857.604 939.5,859C 924.242,867.854 907.742,872.021 890,871.5C 881.068,871.676 872.235,870.842 863.5,869C 841.347,863.497 819.347,857.83 797.5,852C 802.295,857.425 805.628,863.592 807.5,870.5C 807.143,876.286 803.977,878.953 798,878.5C 791.304,877.404 784.804,875.571 778.5,873C 769.657,868.578 760.99,864.245 752.5,860C 760.939,872.322 766.439,885.822 769,900.5C 769.216,924.521 769.216,948.521 769,972.5C 764.916,975.795 760.416,978.462 755.5,980.5C 757.26,996.563 750.594,1007.4 735.5,1013C 731.611,1014.14 728.278,1013.31 725.5,1010.5C 721.256,1018.24 716.423,1025.57 711,1032.5C 698.771,1045.4 685.938,1057.56 672.5,1069C 668.48,1072.68 663.813,1074.01 658.5,1073C 650.549,1067.14 641.549,1064.47 631.5,1065C 602.23,1059.22 586.563,1041.39 584.5,1011.5C 583.924,1000.47 584.924,989.637 587.5,979C 582.518,981.055 577.518,983.222 572.5,985.5C 562.802,986.998 553.136,986.832 543.5,985C 535.76,982.716 529.26,978.55 524,972.5C 521.853,967.673 522.186,963.006 525,958.5C 532.987,950.222 539.654,941.222 545,931.5C 537.308,937.431 528.808,941.931 519.5,945C 514.581,945.802 509.748,945.635 505,944.5C 504.685,945.908 505.018,947.241 506,948.5C 509.317,951.806 512.151,955.472 514.5,959.5C 513.563,961.642 512.23,961.976 510.5,960.5C 508.01,956.862 505.51,953.195 503,949.5C 485.167,933 468,915.833 451.5,898C 450.833,897.333 450.167,897.333 449.5,898C 468.718,920.382 489.051,941.548 510.5,961.5C 539.191,990.199 558.024,1024.53 567,1064.5C 567.667,1073.5 567.667,1082.5 567,1091.5C 560.148,1116.24 553.982,1140.91 548.5,1165.5C 635.627,1136.62 722.96,1108.46 810.5,1081C 817.437,1078.78 822.27,1080.95 825,1087.5C 829.645,1104.08 833.979,1120.75 838,1137.5C 841.422,1150.71 848.088,1161.71 858,1170.5C 862.9,1177.79 868.4,1184.62 874.5,1191C 879.371,1194.03 884.705,1195.87 890.5,1196.5C 890.833,1197.17 891.167,1197.83 891.5,1198.5C 888.896,1217.41 886.896,1236.41 885.5,1255.5C 880.054,1257.19 874.721,1258.85 869.5,1260.5C 847.907,1265.23 826.573,1270.57 805.5,1276.5C 793.734,1278.86 782.067,1281.69 770.5,1285C 776.091,1288.28 776.758,1292.28 772.5,1297C 760.908,1301.2 749.241,1305.2 737.5,1309C 721.66,1317.08 706.66,1326.41 692.5,1337C 681.594,1344.19 669.594,1348.19 656.5,1349C 638.043,1349.34 619.709,1351.01 601.5,1354C 583.596,1358.3 565.763,1362.8 548,1367.5C 508.697,1355.72 468.863,1345.88 428.5,1338C 360.321,1320.94 293.655,1299.27 228.5,1273C 223.334,1270.25 218.334,1267.25 213.5,1264C 209.324,1260.48 207.157,1255.98 207,1250.5C 206.997,1213.18 211.997,1176.51 222,1140.5C 234.941,1097.62 250.941,1055.96 270,1015.5C 285.55,974.182 301.883,933.182 319,892.5C 326.408,874.759 337.908,860.259 353.5,849C 364.439,842.93 376.106,840.93 388.5,843C 394.667,844.506 400.667,846.173 406.5,848C 400.016,841.925 392.35,838.259 383.5,837C 362.208,834.207 344.708,841.04 331,857.5C 314.25,879 302.25,903 295,929.5C 291.156,944.543 287.156,959.543 283,974.5C 282.359,976.813 281.026,978.48 279,979.5C 277.347,979.18 276.347,978.18 276,976.5C 277.231,941.348 284.231,907.348 297,874.5C 300.906,865.682 305.573,857.348 311,849.5C 316.703,843.965 322.203,838.298 327.5,832.5C 331.439,830.44 331.272,829.44 327,829.5C 319.193,830.382 311.36,830.715 303.5,830.5C 281.154,828.488 261.154,820.654 243.5,807C 231.892,797.269 221.059,786.769 211,775.5C 205.589,769.016 200.922,762.016 197,754.5C 193.326,743.578 193.992,732.911 199,722.5C 211.96,697.191 229.127,675.024 250.5,656C 255.301,651.875 260.635,648.542 266.5,646C 240.48,628.15 223.147,603.983 214.5,573.5C 209.09,552.396 208.09,531.063 211.5,509.5C 213.354,501.101 215.521,492.768 218,484.5C 218.826,477.404 218.326,470.404 216.5,463.5C 216.57,462.228 216.903,461.062 217.5,460C 229.167,459.667 240.833,459.333 252.5,459C 264.77,457.173 277.103,456.006 289.5,455.5C 310.808,454.169 332.142,453.502 353.5,453.5C 363.565,453.508 373.565,454.341 383.5,456C 393.32,458.038 402.986,460.538 412.5,463.5C 415.289,447.756 421.956,433.922 432.5,422C 451.647,407.253 471.98,394.253 493.5,383C 507.053,379.552 512.553,384.719 510,398.5C 533.198,376.594 560.364,369.76 591.5,378C 625.922,389.755 649.089,412.922 661,447.5C 673.664,482.799 676.331,518.799 669,555.5C 663.697,573.285 653.864,587.952 639.5,599.5C 640.747,602.329 642.247,604.995 644,607.5C 652.271,597.439 662.771,593.105 675.5,594.5C 666.934,544.845 681.601,503.678 719.5,471C 730.895,462.423 743.729,457.589 758,456.5C 770.15,458.328 781.65,462.161 792.5,468C 812.648,468.505 826.481,478.005 834,496.5C 850.48,542.901 841.814,583.901 808,619.5C 799.92,627.584 791.253,634.918 782,641.5C 783.145,645.247 782.312,648.581 779.5,651.5C 781.466,652.372 783.466,652.205 785.5,651C 791.157,648.507 796.49,645.507 801.5,642C 813.808,630.024 825.808,617.691 837.5,605C 847.99,598.316 859.323,596.649 871.5,600C 876.945,601.888 881.945,604.555 886.5,608C 890.131,611.81 894.131,615.143 898.5,618C 904.533,618.302 910.533,618.802 916.5,619.5C 916.649,620.552 916.483,621.552 916,622.5C 911.192,625.305 907.858,629.305 906,634.5C 905.333,640.5 905.333,646.5 906,652.5C 915.922,645.249 925.256,637.249 934,628.5C 940.984,617.212 944.984,604.878 946,591.5C 948.868,585.104 951.702,578.77 954.5,572.5C 950.154,572.666 945.821,572.499 941.5,572C 934.212,556.355 922.212,546.355 905.5,542C 892.278,539.723 879.945,542.056 868.5,549C 861.833,553.667 855.167,558.333 848.5,563C 847.035,563.601 846.035,563.101 845.5,561.5C 848.943,556.554 852.943,552.054 857.5,548C 871.851,535.484 887.851,525.484 905.5,518C 942.268,506.136 970.768,516.636 991,549.5C 1003.31,570.084 1006.98,592.084 1002,615.5C 994.067,635.772 981.234,652.272 963.5,665C 948.692,675.736 932.358,683.236 914.5,687.5 Z"/></g>
<g><path style="opacity:1" fill="#a6a5a0" d="M 718.5,829.5 C 720.033,831.355 721.7,833.188 723.5,835C 720.404,834.73 718.737,832.897 718.5,829.5 Z"/></g>
<g><path style="opacity:1" fill="#515048" d="M 295.5,825.5 C 304.138,826.34 312.805,826.673 321.5,826.5C 314.011,827.656 306.345,827.822 298.5,827C 297.263,826.768 296.263,826.268 295.5,825.5 Z"/></g>
<g><path style="opacity:1" fill="#e5e3d6" d="M 702.5,775.5 C 703.75,775.577 704.583,776.244 705,777.5C 704.319,790.95 706.319,803.95 711,816.5C 712.123,819.249 713.623,821.749 715.5,824C 712.735,823.28 710.401,821.613 708.5,819C 704.546,816.13 700.212,814.463 695.5,814C 694.14,815.938 694.473,817.604 696.5,819C 702.614,822.136 708.448,825.636 714,829.5C 721.567,843.339 721.234,857.005 713,870.5C 704.787,883.046 694.287,893.213 681.5,901C 675.292,904.521 668.792,907.354 662,909.5C 661.228,909.355 660.561,909.022 660,908.5C 659.973,904.614 658.473,901.448 655.5,899C 646.868,895.008 638.201,891.008 629.5,887C 621.333,881.5 614.5,874.667 609,866.5C 608.333,865.167 608.333,863.833 609,862.5C 615.526,853.452 621.026,843.785 625.5,833.5C 662.47,836.938 687.303,821.271 700,786.5C 701.31,782.93 702.143,779.263 702.5,775.5 Z"/></g>
<g><path style="opacity:1" fill="#e4e1d5" d="M 771.5,764.5 C 774.73,766.377 776.73,769.044 777.5,772.5C 779.226,772.185 780.893,772.019 782.5,772C 814.862,791.176 846.195,811.842 876.5,834C 889.466,842.65 903.133,849.983 917.5,856C 922.032,857.622 926.699,858.622 931.5,859C 916.017,866.262 899.684,869.262 882.5,868C 852.17,863.334 822.504,856.001 793.5,846C 821.476,844.551 828.309,831.717 814,807.5C 803.322,792.818 790.155,780.985 774.5,772C 773.358,769.55 772.358,767.05 771.5,764.5 Z"/></g>
<g><path style="opacity:1" fill="#e3e1d5" d="M 793.5,802.5 C 801.728,801.222 807.895,804.222 812,811.5C 816.346,817.885 818.013,824.885 817,832.5C 813.676,838.583 808.51,841.749 801.5,842C 797.5,842.667 793.5,842.667 789.5,842C 785.098,837.642 782.598,832.475 782,826.5C 785.473,823.939 788.473,820.939 791,817.5C 791.883,812.852 791.05,808.519 788.5,804.5C 790.291,803.83 791.958,803.163 793.5,802.5 Z"/></g>
<g><path style="opacity:1" fill="#e1dfd3" d="M 776.5,777.5 C 785.541,783.365 793.874,790.198 801.5,798C 796.589,799.492 791.589,799.826 786.5,799C 781.943,792.387 778.61,785.221 776.5,777.5 Z"/></g>
<g><path style="opacity:1" fill="#656462" d="M 641.5,782.5 C 639.875,785.891 638.875,789.558 638.5,793.5C 638.5,789.5 638.5,785.5 638.5,781.5C 639.791,781.263 640.791,781.596 641.5,782.5 Z"/></g>
<g><path style="opacity:1" fill="#e3e1d5" d="M 480.5,699.5 C 480.889,706.2 479.056,712.533 475,718.5C 464.333,735.167 453.667,751.833 443,768.5C 431.907,788.109 424.574,809.109 421,831.5C 420.418,840.887 420.418,850.22 421,859.5C 413.318,849.147 403.818,840.98 392.5,835C 371.628,829.076 352.962,833.076 336.5,847C 314.198,870.759 299.031,898.592 291,930.5C 287.337,944.484 283.671,958.484 280,972.5C 281.502,936.823 289.168,902.49 303,869.5C 305.667,864.833 308.333,860.167 311,855.5C 319.167,846.667 327.333,837.833 335.5,829C 357.945,825.275 377.612,815.942 394.5,801C 403.387,792.113 412.221,783.279 421,774.5C 440.667,749.337 460.5,724.337 480.5,699.5 Z"/></g>
<g><path style="opacity:1" fill="#e5e3d6" d="M 704.5,767.5 C 714.839,767.334 725.172,767.5 735.5,768C 743.67,770.085 751.004,773.752 757.5,779C 765.537,786.705 773.87,794.039 782.5,801C 786.253,805.92 787.753,811.42 787,817.5C 776.616,824.206 775.782,832.039 784.5,841C 762.737,839.977 741.737,835.31 721.5,827C 711.213,812.163 707.046,795.663 709,777.5C 708.163,775.156 706.829,773.156 705,771.5C 704.51,770.207 704.343,768.873 704.5,767.5 Z"/></g>
<g><path style="opacity:1" fill="#8d8c8c" d="M 628.5,765.5 C 629.885,766.574 631.051,767.907 632,769.5C 632.667,770.167 632.667,770.833 632,771.5C 630.053,769.937 628.886,767.937 628.5,765.5 Z"/></g>
<g><path style="opacity:1" fill="#dddbd1" d="M 704.5,751.5 C 727.254,755.362 748.921,762.529 769.5,773C 773.329,779.503 776.162,786.336 778,793.5C 768.271,782.762 757.104,773.929 744.5,767C 731.365,763.352 718.031,762.519 704.5,764.5C 704.5,760.167 704.5,755.833 704.5,751.5 Z"/></g>
<g><path style="opacity:1" fill="#62615c" d="M 700.5,753.5 C 701.809,757.351 701.809,761.351 700.5,765.5C 699.893,765.376 699.56,765.043 699.5,764.5C 700.482,761.038 700.815,757.371 700.5,753.5 Z"/></g>
<g><path style="opacity:1" fill="#e4e2d6" d="M 638.5,793.5 C 638.875,789.558 639.875,785.891 641.5,782.5C 658.899,783.544 670.732,775.878 677,759.5C 681.002,746.155 685.002,732.822 689,719.5C 691.237,715.365 693.737,711.365 696.5,707.5C 697.966,710.021 698.466,712.688 698,715.5C 693.788,722.15 689.955,728.983 686.5,736C 686.694,749.216 691.194,760.716 700,770.5C 696.926,791.808 686.759,808.975 669.5,822C 656.647,828.795 642.98,831.295 628.5,829.5C 630.692,822.09 633.192,814.757 636,807.5C 637.029,802.856 637.862,798.19 638.5,793.5 Z"/></g>
<g><path style="opacity:1" fill="#989999" d="M 617.5,754.5 C 619.757,755.562 620.923,757.228 621,759.5C 619.198,758.211 618.031,756.544 617.5,754.5 Z"/></g>
<g><path style="opacity:1" fill="#999a96" d="M 624.5,750.5 C 625.788,752.035 625.788,753.701 624.5,755.5C 623.334,753.833 623.334,752.166 624.5,750.5 Z"/></g>
<g><path style="opacity:1" fill="#a4a2a2" d="M 602.5,744.5 C 605.283,746.067 607.949,747.9 610.5,750C 607.902,749.874 605.569,748.874 603.5,747C 602.748,746.329 602.414,745.496 602.5,744.5 Z"/></g>
<g><path style="opacity:1" fill="#deded3" d="M 700.5,753.5 C 700.815,757.371 700.482,761.038 699.5,764.5C 692.888,756.318 690.721,746.985 693,736.5C 694.333,735.167 695.667,735.167 697,736.5C 699.386,741.931 700.553,747.597 700.5,753.5 Z"/></g>
<g><path style="opacity:1" fill="#e0dfd2" d="M 806.5,728.5 C 813.371,731.201 818.538,735.868 822,742.5C 823.5,747.667 821.667,749.5 816.5,748C 810.728,745.366 805.561,741.866 801,737.5C 800.333,736.833 800.333,736.167 801,735.5C 803.43,733.578 805.263,731.245 806.5,728.5 Z"/></g>
<g><path style="opacity:1" fill="#b0afaa" d="M 697.5,722.5 C 698.737,725.558 697.904,728.224 695,730.5C 695.435,727.826 696.268,725.159 697.5,722.5 Z"/></g>
<g><path style="opacity:1" fill="#e3e1d5" d="M 605.5,689.5 C 606.75,689.577 607.583,690.244 608,691.5C 610.723,699.278 613.723,706.945 617,714.5C 617.092,726.574 617.925,738.574 619.5,750.5C 614.609,748.779 611.109,745.446 609,740.5C 601.886,728.048 598.886,714.714 600,700.5C 601.319,696.528 603.153,692.861 605.5,689.5 Z"/></g>
<g><path style="opacity:1" fill="#e3e1d5" d="M 703.5,714.5 C 710.294,713.73 716.294,715.564 721.5,720C 736.333,733.5 751.167,747 766,760.5C 767.513,763.024 768.18,765.691 768,768.5C 762.121,765.811 756.288,762.977 750.5,760C 735.273,755.389 719.94,751.222 704.5,747.5C 703.259,742.208 701.259,737.208 698.5,732.5C 701.602,726.864 703.269,720.864 703.5,714.5 Z"/></g>
<g><path style="opacity:1" fill="#dddbd2" d="M 652.5,690.5 C 649.009,707.842 641.842,723.842 631,738.5C 632.999,720.17 640.165,704.17 652.5,690.5 Z"/></g>
<g><path style="opacity:1" fill="#c9c6bf" d="M 933.5,708.5 C 920.803,708.246 908.137,708.579 895.5,709.5C 895.5,710.5 895.5,711.5 895.5,712.5C 882.167,712.5 868.833,712.5 855.5,712.5C 881.37,708.143 907.37,706.809 933.5,708.5 Z"/></g>
<g><path style="opacity:1" fill="#e5e3d7" d="M 848.5,603.5 C 855.167,603.5 861.833,603.5 868.5,603.5C 872.797,604.146 876.797,605.646 880.5,608C 885.627,613.061 891.293,617.394 897.5,621C 901.442,621.993 905.442,622.66 909.5,623C 906.943,625.892 904.776,629.059 903,632.5C 905.901,650.59 901.234,666.256 889,679.5C 884.594,683.617 880.094,687.617 875.5,691.5C 860.544,693.791 845.878,697.291 831.5,702C 825.475,704.666 825.141,707.666 830.5,711C 838.773,712.33 847.107,712.83 855.5,712.5C 868.833,712.5 882.167,712.5 895.5,712.5C 895.5,711.5 895.5,710.5 895.5,709.5C 908.137,708.579 920.803,708.246 933.5,708.5C 970.365,713.901 986.199,735.234 981,772.5C 982.984,781.954 985.484,791.287 988.5,800.5C 988.423,802.299 987.923,803.966 987,805.5C 985.287,806.878 983.953,808.545 983,810.5C 969.445,824.719 955.945,838.886 942.5,853C 939.876,854.978 936.876,855.812 933.5,855.5C 928.745,855.193 924.078,854.36 919.5,853C 910.303,850.067 901.636,846.067 893.5,841C 858.08,815.593 821.58,791.76 784,769.5C 783.83,767.155 784.163,764.821 785,762.5C 790,759.167 795,755.833 800,752.5C 800.405,748.787 800.405,745.121 800,741.5C 805.911,746.457 812.578,750.124 820,752.5C 821.982,752.01 823.649,751.01 825,749.5C 825.837,745.705 825.504,742.039 824,738.5C 819.356,732.934 814.189,727.934 808.5,723.5C 810.336,722.081 812.336,720.914 814.5,720C 815.126,719.25 815.626,718.416 816,717.5C 816.333,713.833 816.667,710.167 817,706.5C 818.464,705.541 819.297,704.208 819.5,702.5C 818.352,700.239 817.852,697.905 818,695.5C 822.305,691.606 826.471,687.606 830.5,683.5C 830.023,682.522 829.357,681.689 828.5,681C 817.44,680.32 807.106,677.32 797.5,672C 795.963,670.89 795.297,669.39 795.5,667.5C 802.813,668.998 810.147,670.165 817.5,671C 819.673,669.135 820.007,666.969 818.5,664.5C 811.405,658.118 803.071,655.785 793.5,657.5C 786.48,657.834 779.48,658.001 772.5,658C 783.899,656.132 794.232,651.798 803.5,645C 815.808,633.024 827.808,620.691 839.5,608C 842.243,605.962 845.243,604.462 848.5,603.5 Z"/></g>
<g><path style="opacity:1" fill="#e3e0d5" d="M 277.5,665.5 C 279.439,668.308 281.272,671.308 283,674.5C 287.196,684.755 291.196,695.088 295,705.5C 297.161,710.492 299.828,715.159 303,719.5C 311.913,725.708 321.079,731.541 330.5,737C 340.932,749.188 351.599,761.188 362.5,773C 365.934,775.435 369.6,777.435 373.5,779C 370.793,779.328 368.126,778.995 365.5,778C 362.136,776.318 358.802,774.651 355.5,773C 346.5,766 337.5,759 328.5,752C 317.845,747.178 306.845,743.178 295.5,740C 288.181,737.089 282.014,732.589 277,726.5C 275.217,724.711 274.384,722.544 274.5,720C 276.712,712.652 278.046,705.152 278.5,697.5C 277.723,686.847 277.389,676.18 277.5,665.5 Z"/></g>
<g><path style="opacity:1" fill="#e2e0d5" d="M 708.5,693.5 C 708.456,695.859 708.79,698.359 709.5,701C 715.671,699.288 722.004,698.621 728.5,699C 732.164,700.002 735.331,701.836 738,704.5C 749.128,718.755 756.961,734.422 761.5,751.5C 748.28,738.777 734.613,726.61 720.5,715C 714.711,710.504 708.544,709.671 702,712.5C 700.884,709.18 700.217,705.847 700,702.5C 703.038,699.631 705.871,696.631 708.5,693.5 Z"/></g>
<g><path style="opacity:1" fill="#e2e0d5" d="M 897.5,693.5 C 907.839,693.334 918.172,693.5 928.5,694C 936.105,695.252 943.771,696.085 951.5,696.5C 970.097,700.047 984.597,709.713 995,725.5C 998.624,731.497 1000.46,737.997 1000.5,745C 997.579,762.753 996.913,780.586 998.5,798.5C 999.951,806.617 997.284,812.783 990.5,817C 986.673,818.746 983.007,820.746 979.5,823C 972.127,830.704 965.127,838.704 958.5,847C 955.337,849.416 952.004,851.582 948.5,853.5C 960.098,839.703 972.598,826.036 986,812.5C 990.858,807.78 992.525,802.114 991,795.5C 985.118,780.067 982.784,764.067 984,747.5C 980.399,728.565 969.566,715.732 951.5,709C 939.652,705.117 927.485,703.283 915,703.5C 892.158,705.028 869.325,706.695 846.5,708.5C 841.343,708.708 836.343,708.042 831.5,706.5C 840.821,702.585 850.487,699.752 860.5,698C 872.71,695.44 885.043,693.94 897.5,693.5 Z"/></g>
<g><path style="opacity:1" fill="#bebcb6" d="M 897.5,693.5 C 908.659,692.341 919.992,692.174 931.5,693C 938.468,693.216 945.135,694.382 951.5,696.5C 943.771,696.085 936.105,695.252 928.5,694C 918.172,693.5 907.839,693.334 897.5,693.5 Z"/></g>
<g><path style="opacity:1" fill="#e2e0d4" d="M 770.5,678.5 C 772.5,678.5 774.5,678.5 776.5,678.5C 776.5,679.833 776.5,681.167 776.5,682.5C 782.49,681.758 788.49,681.591 794.5,682C 795.973,682.71 796.64,683.876 796.5,685.5C 793.05,684.756 791.384,686.09 791.5,689.5C 799.099,688.541 806.099,690.041 812.5,694C 810.24,695.689 807.74,696.856 805,697.5C 804.517,698.448 804.351,699.448 804.5,700.5C 807.167,700.5 809.833,700.5 812.5,700.5C 813.155,705.05 811.321,708.05 807,709.5C 806.51,710.793 806.343,712.127 806.5,713.5C 808.288,713.215 809.955,713.548 811.5,714.5C 808.258,718.46 804.258,721.46 799.5,723.5C 798.614,724.325 798.281,725.325 798.5,726.5C 800.288,726.215 801.955,726.548 803.5,727.5C 801.214,732.135 797.547,734.135 792.5,733.5C 792.421,735.666 791.754,737.666 790.5,739.5C 790.833,740.167 791.167,740.833 791.5,741.5C 792.736,740.754 794.07,740.421 795.5,740.5C 796.934,743.698 797.434,747.032 797,750.5C 794.034,752.773 790.867,754.773 787.5,756.5C 788.21,728.902 779.544,704.569 761.5,683.5C 764.331,681.291 767.331,679.624 770.5,678.5 Z"/></g>
<g><path style="opacity:1" fill="#e5e3d6" d="M 670.5,664.5 C 680.531,674.199 688.364,685.532 694,698.5C 694.667,700.5 694.667,702.5 694,704.5C 691.083,708.666 688.416,712.999 686,717.5C 682.005,730.811 678.005,744.144 674,757.5C 668.231,773.457 657.064,780.29 640.5,778C 639.584,777.626 638.75,777.126 638,776.5C 636.303,770.104 633.303,764.438 629,759.5C 628.333,755.167 628.333,750.833 629,746.5C 644.029,728.437 653.696,707.771 658,684.5C 663.442,678.613 667.609,671.947 670.5,664.5 Z"/></g>
<g><path style="opacity:1" fill="#e3e1d5" d="M 733.5,675.5 C 738.412,675.063 743.078,675.896 747.5,678C 755.564,682.461 762.064,688.628 767,696.5C 774.662,708.144 779.995,720.81 783,734.5C 783.667,741.5 783.667,748.5 783,755.5C 782.941,758.822 781.774,761.656 779.5,764C 778.5,764.667 777.5,764.667 776.5,764C 774,762.167 771.5,760.333 769,758.5C 763.409,740.321 755.409,723.321 745,707.5C 741.088,702.917 736.588,699.083 731.5,696C 724.721,695.369 718.054,695.703 711.5,697C 716.104,686.894 723.438,679.727 733.5,675.5 Z"/></g>
<g><path style="opacity:1" fill="#dcdad0" d="M 757.5,659.5 C 759.735,659.205 761.735,659.539 763.5,660.5C 759.621,660.977 755.954,662.143 752.5,664C 750.963,665.11 750.297,666.61 750.5,668.5C 755.357,668.492 759.69,666.992 763.5,664C 779.137,660.074 794.804,659.741 810.5,663C 812.555,663.687 814.221,664.854 815.5,666.5C 814.667,666.833 813.833,667.167 813,667.5C 807.324,665.287 801.491,664.12 795.5,664C 792.797,665.82 791.964,668.32 793,671.5C 795.567,674.731 798.734,677.231 802.5,679C 810.055,681.178 817.722,682.844 825.5,684C 822.051,686.482 818.884,689.315 816,692.5C 811.728,688.242 806.561,686.242 800.5,686.5C 801.275,682.818 799.941,680.318 796.5,679C 791.718,677.272 786.885,677.105 782,678.5C 777.651,675.58 772.817,674.747 767.5,676C 764.394,677.636 761.227,679.136 758,680.5C 746.479,671.305 734.313,670.138 721.5,677C 729.586,663.458 741.586,657.625 757.5,659.5 Z"/></g>
<g><path style="opacity:1" fill="#e6e4d7" d="M 370.5,458.5 C 389.94,459.689 408.274,464.856 425.5,474C 435.626,480.117 441.792,488.95 444,500.5C 444.298,515.507 444.298,530.507 444,545.5C 445.05,561.98 449.717,577.313 458,591.5C 460.5,594 463,596.5 465.5,599C 471.218,603.121 475.051,601.954 477,595.5C 478.5,597.667 480,599.833 481.5,602C 477.442,602.34 473.442,603.007 469.5,604C 467.549,605.734 466.549,607.901 466.5,610.5C 459.591,610.953 457.091,614.62 459,621.5C 460.4,624.902 462.567,627.736 465.5,630C 457.372,633.418 454.539,639.252 457,647.5C 458.745,648.956 460.578,650.289 462.5,651.5C 458.747,659.651 461.414,663.984 470.5,664.5C 473.38,677.538 480.046,679.872 490.5,671.5C 492.778,673.223 495.278,674.556 498,675.5C 499.667,674.5 501.333,673.5 503,672.5C 510.394,673.984 515.227,670.984 517.5,663.5C 521.885,666.022 526.552,667.188 531.5,667C 535.647,664.93 536.647,661.763 534.5,657.5C 543.561,658.184 545.895,654.518 541.5,646.5C 541.833,646.167 542.167,645.833 542.5,645.5C 556.499,644.919 569.499,641.085 581.5,634C 586.249,629.922 590.249,625.255 593.5,620C 596.329,618.491 599.162,618.325 602,619.5C 604,624.833 606,630.167 608,635.5C 608.667,640.167 608.667,644.833 608,649.5C 603.747,660.649 602.914,671.982 605.5,683.5C 596.597,694.048 593.763,706.048 597,719.5C 598.953,726.86 601.787,733.86 605.5,740.5C 605.167,740.833 604.833,741.167 604.5,741.5C 601.467,739.302 598.3,737.302 595,735.5C 585.771,718.604 574.604,703.104 561.5,689C 554.627,683.599 547.294,678.933 539.5,675C 536.215,674.176 532.882,673.676 529.5,673.5C 522.44,673.26 519.94,676.593 522,683.5C 528.122,693.289 535.955,701.456 545.5,708C 560.997,718.25 576.664,728.25 592.5,738C 596.263,742.853 600.263,747.52 604.5,752C 607.204,753.846 610.204,755.013 613.5,755.5C 621.165,763.002 628.332,771.002 635,779.5C 635.831,791.516 634.164,803.183 630,814.5C 608.993,865.177 575.827,906.01 530.5,937C 524.551,940.15 518.218,941.983 511.5,942.5C 504.601,941.55 498.601,938.717 493.5,934C 486.167,926 478.833,918 471.5,910C 460.333,900.833 449.167,891.667 438,882.5C 424.869,866.745 420.536,848.745 425,828.5C 428.948,807.269 436.281,787.269 447,768.5C 459.094,750.079 470.76,731.412 482,712.5C 486.302,704.19 486.469,695.857 482.5,687.5C 478.488,682.484 473.488,680.984 467.5,683C 464.37,685.128 461.537,687.628 459,690.5C 453.495,698.84 448.495,707.507 444,716.5C 437.862,731.914 431.529,747.247 425,762.5C 421.167,767 417.333,771.5 413.5,776C 408.568,778.922 403.235,780.755 397.5,781.5C 385.434,780.535 374.434,776.701 364.5,770C 354.167,758.333 343.833,746.667 333.5,735C 326.447,730.3 319.114,725.967 311.5,722C 308.667,719.167 305.833,716.333 303,713.5C 296.552,700.157 290.886,686.49 286,672.5C 281.968,667.459 279.968,661.793 280,655.5C 280.414,655.043 280.914,654.709 281.5,654.5C 299.626,662.975 318.626,665.475 338.5,662C 351.572,659.357 364.406,655.857 377,651.5C 395.818,656.813 414.985,658.98 434.5,658C 441.695,657.829 447.861,655.329 453,650.5C 454.221,645.03 452.054,641.53 446.5,640C 444.212,639.178 441.878,638.511 439.5,638C 430.167,637.333 420.833,637.333 411.5,638C 399.474,640.465 387.641,643.631 376,647.5C 354.116,641.653 331.949,637.32 309.5,634.5C 296.667,634.334 286.501,639.334 279,649.5C 244.87,630.62 223.87,601.953 216,563.5C 212.601,546.925 211.934,530.259 214,513.5C 216.332,504.172 218.665,494.838 221,485.5C 221.72,478.464 221.553,471.464 220.5,464.5C 229.5,463.833 238.5,463.167 247.5,462.5C 259.816,461.302 272.15,460.302 284.5,459.5C 290.724,458.939 296.724,459.605 302.5,461.5C 303.506,461.062 303.506,460.396 302.5,459.5C 325.13,457.235 347.797,456.902 370.5,458.5 Z"/></g>
<g><path style="opacity:1" fill="#e1dfd4" d="M 469.5,685.5 C 478.06,684.877 481.227,688.544 479,696.5C 464.333,714.5 449.667,732.5 435,750.5C 440.756,730.26 449.422,711.26 461,693.5C 463.729,690.601 466.562,687.934 469.5,685.5 Z"/></g>
<g><path style="opacity:1" fill="#e2e0d4" d="M 526.5,676.5 C 531.761,676.459 536.761,677.626 541.5,680C 555.469,687.071 566.636,697.238 575,710.5C 579.291,716.915 583.458,723.415 587.5,730C 569.995,720.56 553.328,709.56 537.5,697C 531.706,692.395 527.373,686.729 524.5,680C 524.978,678.697 525.645,677.531 526.5,676.5 Z"/></g>
<g><path style="opacity:1" fill="#ddddd1" d="M 657.5,650.5 C 661.552,653.55 664.885,657.217 667.5,661.5C 666.304,666.894 663.804,671.56 660,675.5C 659.718,667.096 658.885,658.762 657.5,650.5 Z"/></g>
<g><path style="opacity:1" fill="#6d6d6b" d="M 757.5,659.5 C 759.693,658.203 762.027,658.203 764.5,659.5C 764.376,660.107 764.043,660.44 763.5,660.5C 761.735,659.539 759.735,659.205 757.5,659.5 Z"/></g>
<g><path style="opacity:1" fill="#d8d8cf" d="M 515.5,651.5 C 519.551,653.855 523.884,655.688 528.5,657C 530.451,658.734 531.451,660.901 531.5,663.5C 522.012,664.777 516.679,660.777 515.5,651.5 Z"/></g>
<g><path style="opacity:1" fill="#45433d" d="M 756.5,655.5 C 755.737,656.268 754.737,656.768 753.5,657C 749.848,657.499 746.182,657.665 742.5,657.5C 746.919,656.028 751.586,655.362 756.5,655.5 Z"/></g>
<g><path style="opacity:1" fill="#e3e2d6" d="M 648.5,642.5 C 651.971,643.478 653.805,645.812 654,649.5C 655.511,660.122 655.844,670.789 655,681.5C 646.426,691.64 639.093,702.64 633,714.5C 629.434,724.689 626.767,735.022 625,745.5C 619.294,708.108 627.128,673.775 648.5,642.5 Z"/></g>
<g><path style="opacity:1" fill="#e6e4d7" d="M 321.5,826.5 C 312.805,826.673 304.138,826.34 295.5,825.5C 277.375,822.85 261.041,816.017 246.5,805C 232.667,793.833 220.167,781.333 209,767.5C 204.832,761.99 201.498,755.99 199,749.5C 198.171,742.766 198.504,736.099 200,729.5C 212.848,702.636 230.348,679.136 252.5,659C 257.347,654.309 263.014,651.143 269.5,649.5C 272.739,649.786 275.406,651.119 277.5,653.5C 275.631,656.94 274.465,660.607 274,664.5C 274,679.167 274,693.833 274,708.5C 272.727,712.153 271.56,715.819 270.5,719.5C 272.271,726.786 276.271,732.619 282.5,737C 286.706,739.602 291.039,741.936 295.5,744C 306.136,746.878 316.47,750.545 326.5,755C 334.788,760.953 342.788,767.286 350.5,774C 367.858,784.765 386.524,788.098 406.5,784C 384.334,810.416 356,824.583 321.5,826.5 Z"/></g>
<g><path style="opacity:1" fill="#cfcfc9" d="M 777.5,644.5 C 778.069,647.264 777.069,649.764 774.5,652C 771.377,655.02 767.71,656.02 763.5,655C 768.35,651.637 773.017,648.137 777.5,644.5 Z"/></g>
<g><path style="opacity:1" fill="#e2e0d4" d="M 641.5,614.5 C 644.504,618.299 646.67,622.632 648,627.5C 649.25,630.077 649.584,632.743 649,635.5C 633.151,657.697 623.151,682.363 619,709.5C 615.247,701.907 612.08,694.073 609.5,686C 611.561,681.932 614.395,678.432 618,675.5C 620.732,671.759 623.066,667.759 625,663.5C 626.823,652.383 629.157,641.383 632,630.5C 634.565,624.778 637.731,619.445 641.5,614.5 Z"/></g>
<g><path style="opacity:1" fill="#e6e4d6" d="M 447.5,650.5 C 444.196,652.417 440.529,653.584 436.5,654C 427.089,654.805 417.756,654.638 408.5,653.5C 407.699,651.958 407.366,650.292 407.5,648.5C 405.473,648.662 403.473,648.495 401.5,648C 408.669,644.257 416.169,642.09 424,641.5C 427.258,641.493 430.425,641.993 433.5,643C 432.833,643.333 432.167,643.667 431.5,644C 434.224,644.27 436.891,644.77 439.5,645.5C 440.816,642.972 441.983,642.972 443,645.5C 444.714,644.075 446.047,644.408 447,646.5C 447.49,647.793 447.657,649.127 447.5,650.5 Z"/></g>
<g><path style="opacity:1" fill="#cecdc9" d="M 767.5,642.5 C 769.527,642.338 771.527,642.505 773.5,643C 769.521,646.656 765.188,649.822 760.5,652.5C 759.834,647.188 762.168,643.854 767.5,642.5 Z"/></g>
<g><path style="opacity:1" fill="#d6d4ca" d="M 447.5,650.5 C 447.657,649.127 447.49,647.793 447,646.5C 446.047,644.408 444.714,644.075 443,645.5C 441.983,642.972 440.816,642.972 439.5,645.5C 436.891,644.77 434.224,644.27 431.5,644C 432.167,643.667 432.833,643.333 433.5,643C 430.425,641.993 427.258,641.493 424,641.5C 416.169,642.09 408.669,644.257 401.5,648C 403.473,648.495 405.473,648.662 407.5,648.5C 407.366,650.292 407.699,651.958 408.5,653.5C 400.265,652.952 392.265,651.452 384.5,649C 404.973,639.935 425.973,638.268 447.5,644C 451.355,646.564 451.355,648.731 447.5,650.5 Z"/></g>
<g><path style="opacity:1" fill="#a09f9d" d="M 547.5,639.5 C 548.209,640.404 549.209,640.737 550.5,640.5C 546.019,641.648 541.352,641.815 536.5,641C 540.191,640.58 543.858,640.08 547.5,639.5 Z"/></g>
<g><path style="opacity:1" fill="#e2e0d4" d="M 301.5,638.5 C 324.629,639.425 347.296,643.258 369.5,650C 347.537,658.772 324.871,661.439 301.5,658C 294.844,656.424 288.511,654.091 282.5,651C 287.568,644.807 293.901,640.64 301.5,638.5 Z"/></g>
<g><path style="opacity:1" fill="#dedcd2" d="M 550.5,640.5 C 549.209,640.737 548.209,640.404 547.5,639.5C 555.214,638.141 557.881,633.808 555.5,626.5C 565.832,625.861 575.999,624.195 586,621.5C 586.5,621.833 587,622.167 587.5,622.5C 577.957,634.104 565.623,640.104 550.5,640.5 Z"/></g>
<g><path style="opacity:1" fill="#e3e1d5" d="M 634.5,601.5 C 635.675,601.281 636.675,601.614 637.5,602.5C 638.402,605.04 639.402,607.54 640.5,610C 636.047,615.731 632.214,621.897 629,628.5C 625.798,640.048 623.131,651.714 621,663.5C 617.81,669.878 613.643,675.544 608.5,680.5C 607.338,675.533 607.171,670.533 608,665.5C 610.516,655.937 611.85,646.27 612,636.5C 609.794,630.048 607.294,623.714 604.5,617.5C 610.757,614.578 617.09,611.744 623.5,609C 627.58,606.971 631.246,604.471 634.5,601.5 Z"/></g>
<g><path style="opacity:1" fill="#bbbab8" d="M 599.5,606.5 C 600.8,609.024 600.8,611.691 599.5,614.5C 598.232,615.428 596.899,615.595 595.5,615C 597.246,612.341 598.58,609.508 599.5,606.5 Z"/></g>
<g><path style="opacity:1" fill="#e1dfd3" d="M 740.5,584.5 C 757.33,582.455 760.83,588.122 751,601.5C 747,606.167 743,610.833 739,615.5C 739.218,612.821 739.885,610.155 741,607.5C 741.667,603.5 741.667,599.5 741,595.5C 737.817,593.477 734.317,592.977 730.5,594C 711.972,603.013 695.472,614.846 681,629.5C 674.023,637.125 670.023,646.125 669,656.5C 665,652.5 661,648.5 657,644.5C 654.673,640.578 654.34,636.578 656,632.5C 679.242,607.743 707.408,591.743 740.5,584.5 Z"/></g>
<g><path style="opacity:1" fill="#e1dfd3" d="M 543.5,610.5 C 543.64,612.124 542.973,613.29 541.5,614C 542.833,615 544.167,616 545.5,617C 544.833,617.333 544.167,617.667 543.5,618C 545.362,619.366 547.028,620.866 548.5,622.5C 544.418,622.344 540.418,622.844 536.5,624C 534.342,625.312 534.009,626.978 535.5,629C 540.833,629 546.167,629 551.5,629C 553.14,631.776 552.473,633.776 549.5,635C 540.876,637.982 532.209,638.148 523.5,635.5C 518.427,635.381 516.76,637.548 518.5,642C 524.356,643.823 530.356,644.99 536.5,645.5C 542.911,653.617 540.911,656.45 530.5,654C 526.786,650.101 522.453,647.268 517.5,645.5C 515.956,645.79 514.623,646.456 513.5,647.5C 512.278,645.022 510.278,644.022 507.5,644.5C 507.337,646.857 507.503,649.19 508,651.5C 510.244,654.823 512.078,658.323 513.5,662C 512.738,667.267 509.738,669.767 504.5,669.5C 504.666,664.156 504.499,658.823 504,653.5C 502.522,650.007 500.522,649.674 498,652.5C 496.862,658.345 497.695,663.845 500.5,669C 497.846,672.348 495.346,672.182 493,668.5C 493.787,663.928 494.287,659.262 494.5,654.5C 493.178,654.33 492.011,654.663 491,655.5C 489.173,659.281 488.173,663.281 488,667.5C 484.101,675.067 479.767,675.401 475,668.5C 474.51,667.207 474.343,665.873 474.5,664.5C 478.438,663.781 481.938,662.115 485,659.5C 488.413,652.789 486.58,649.956 479.5,651C 476.193,654.506 473.026,658.006 470,661.5C 464.911,661.053 463.244,658.386 465,653.5C 465.388,652.572 466.055,651.905 467,651.5C 471.637,650.399 476.137,648.899 480.5,647C 481.747,645.506 481.747,644.006 480.5,642.5C 478.232,641.456 475.899,641.289 473.5,642C 470.27,644.073 466.937,645.906 463.5,647.5C 460.935,647.101 459.601,645.601 459.5,643C 459.696,639.733 461.03,637.066 463.5,635C 468.401,633.675 473.401,633.175 478.5,633.5C 478.5,632.5 478.5,631.5 478.5,630.5C 468.28,630.356 462.78,625.356 462,615.5C 462.739,614.426 463.739,613.759 465,613.5C 468.452,617.955 472.286,622.122 476.5,626C 483.077,627.591 485.244,625.091 483,618.5C 479.278,614.385 474.778,611.385 469.5,609.5C 474.611,604.61 480.111,604.277 486,608.5C 488.061,613.057 491.228,616.39 495.5,618.5C 495.702,616.011 495.202,613.677 494,611.5C 489.547,607.286 485.547,602.62 482,597.5C 480.699,595.598 480.032,593.598 480,591.5C 489.61,595.258 499.443,598.425 509.5,601C 513.953,602.726 518.286,604.726 522.5,607C 523.701,607.903 524.535,609.069 525,610.5C 523.032,621.568 526.532,624.068 535.5,618C 538.036,615.295 540.703,612.795 543.5,610.5 Z"/></g>
<g><path style="opacity:1" fill="#cac7c8" d="M 481.5,653.5 C 482.376,653.369 483.043,653.702 483.5,654.5C 482.314,657.518 480.147,659.518 477,660.5C 476.333,659.833 476.333,659.167 477,658.5C 478.707,656.963 480.207,655.296 481.5,653.5 Z"/></g>
<g><path style="opacity:1" fill="#c6c5c0" d="M 471.5,614.5 C 474.986,615.472 477.819,617.472 480,620.5C 480.749,621.635 480.583,622.635 479.5,623.5C 475.388,621.725 472.722,618.725 471.5,614.5 Z"/></g>
<g><path style="opacity:1" fill="#5c5956" d="M 528.5,610.5 C 528.94,612.844 529.94,614.844 531.5,616.5C 530.791,617.404 529.791,617.737 528.5,617.5C 528.5,615.167 528.5,612.833 528.5,610.5 Z"/></g>
<g><path style="opacity:1" fill="#b8b5ad" d="M 868.5,603.5 C 861.833,603.5 855.167,603.5 848.5,603.5C 855.167,600.833 861.833,600.833 868.5,603.5 Z"/></g>
<g><path style="opacity:1" fill="#e1e0d4" d="M 615.5,578.5 C 618.016,578.755 620.35,579.589 622.5,581C 627.356,585.88 631.356,591.38 634.5,597.5C 625.29,604.683 614.956,609.683 603.5,612.5C 603.387,607.67 604.22,603.003 606,598.5C 609.075,591.766 612.242,585.099 615.5,578.5 Z"/></g>
<g><path style="opacity:1" fill="#e5e3d6" d="M 531.5,616.5 C 529.94,614.844 528.94,612.844 528.5,610.5C 528.291,609.078 527.791,607.745 527,606.5C 524.5,604.667 522,602.833 519.5,601C 507.26,596.713 494.927,592.713 482.5,589C 479.621,588.043 477.121,588.543 475,590.5C 470,582.5 465,574.5 460,566.5C 456.304,546.094 464.804,534.261 485.5,531C 507.746,529.595 528.413,534.595 547.5,546C 561.265,555.352 565.432,567.852 560,583.5C 552.475,596.193 542.975,607.193 531.5,616.5 Z"/></g>
<g><path style="opacity:1" fill="#e5e3d6" d="M 922.5,516.5 C 951.01,513.939 972.51,524.939 987,549.5C 1011.53,594.564 1003.03,632.064 961.5,662C 937.6,678.545 911.767,687.379 884,688.5C 894.799,680.24 902.133,669.574 906,656.5C 918.237,648.265 929.237,638.598 939,627.5C 941.551,623.065 943.551,618.399 945,613.5C 946.482,605.786 948.149,598.119 950,590.5C 953.125,584.585 955.959,578.585 958.5,572.5C 958.182,571.353 957.516,570.519 956.5,570C 952.129,569.828 947.796,569.328 943.5,568.5C 931.362,546.594 912.695,536.427 887.5,538C 879.831,540.187 872.497,542.854 865.5,546C 882.336,531.916 901.336,522.082 922.5,516.5 Z"/></g>
<g><path style="opacity:1" fill="#c0beb7" d="M 665.5,480.5 C 667.402,486.223 668.569,492.223 669,498.5C 669.827,511.007 669.66,523.34 668.5,535.5C 669.018,517.045 668.018,498.711 665.5,480.5 Z"/></g>
<g><path style="opacity:1" fill="#5d5b59" d="M 247.5,462.5 C 238.5,463.167 229.5,463.833 220.5,464.5C 219.957,464.44 219.624,464.107 219.5,463.5C 228.81,462.502 238.143,462.168 247.5,462.5 Z"/></g>
<g><path style="opacity:1" fill="#e5e3d7" d="M 756.5,655.5 C 751.586,655.362 746.919,656.028 742.5,657.5C 737.029,658.444 732.029,660.611 727.5,664C 721.559,670.608 716.392,677.775 712,685.5C 707.333,690.167 702.667,694.833 698,699.5C 692.448,684.958 684.115,672.292 673,661.5C 672.55,650.516 675.883,640.85 683,632.5C 697.507,617.835 714.007,606.002 732.5,597C 734.441,596.257 736.274,596.424 738,597.5C 737.674,606.496 735.674,615.162 732,623.5C 721.755,635.653 716.255,649.653 715.5,665.5C 716.978,665.762 718.311,665.429 719.5,664.5C 725.352,651.778 730.519,638.778 735,625.5C 743.76,616.077 751.76,606.077 759,595.5C 762.061,588.456 759.894,583.956 752.5,582C 741.339,580.997 730.506,582.497 720,586.5C 694.018,595.654 671.685,610.321 653,630.5C 650.512,624.378 648.012,618.212 645.5,612C 653.815,600.76 664.982,595.594 679,596.5C 671.025,556.119 680.025,520.119 706,488.5C 717.688,474.905 732.188,465.738 749.5,461C 762.345,459.836 774.345,462.502 785.5,469C 793.047,471.459 800.714,473.459 808.5,475C 819.706,479.208 827.206,487.041 831,498.5C 846.9,544.224 837.9,584.224 804,618.5C 796.795,625.373 789.295,631.873 781.5,638C 775.944,639.239 770.278,639.906 764.5,640C 758.035,643.094 755.369,648.26 756.5,655.5 Z"/></g>
<g><path style="opacity:1" fill="#81817f" d="M 725.5,639.5 C 726.043,639.56 726.376,639.893 726.5,640.5C 724.057,645.72 721.89,651.053 720,656.5C 720.713,650.526 722.546,644.859 725.5,639.5 Z"/></g>
<g><path style="opacity:1" fill="#bab7b1" d="M 370.5,458.5 C 347.797,456.902 325.13,457.235 302.5,459.5C 303.506,460.396 303.506,461.062 302.5,461.5C 296.724,459.605 290.724,458.939 284.5,459.5C 302.102,457.124 319.935,456.124 338,456.5C 347.5,456.667 357,456.833 366.5,457C 368.058,457.21 369.391,457.71 370.5,458.5 Z"/></g>
<g><path style="opacity:1" fill="#e6e4d7" d="M 665.5,480.5 C 668.018,498.711 669.018,517.045 668.5,535.5C 667.054,560.061 656.887,580.061 638,595.5C 634.532,590.066 630.699,584.899 626.5,580C 618.974,573.361 612.474,574.195 607,582.5C 601.682,594.138 596.182,605.638 590.5,617C 576.663,620.921 562.663,622.755 548.5,622.5C 547.028,620.866 545.362,619.366 543.5,618C 544.167,617.667 544.833,617.333 545.5,617C 544.167,616 542.833,615 541.5,614C 542.973,613.29 543.64,612.124 543.5,610.5C 551.769,602.646 558.603,593.646 564,583.5C 568.968,565.59 563.468,551.757 547.5,542C 524.683,528.837 500.35,524.837 474.5,530C 455.622,539.243 450.455,553.41 459,572.5C 463.727,578.897 468.06,585.564 472,592.5C 472.494,594.134 472.66,595.801 472.5,597.5C 467.601,596.459 463.767,593.792 461,589.5C 453.462,576.884 449.129,563.218 448,548.5C 447.369,536.325 447.536,524.158 448.5,512C 449.172,497.015 443.838,484.682 432.5,475C 427.783,470.973 422.449,467.973 416.5,466C 418.718,443.58 429.385,426.247 448.5,414C 463.703,403.898 479.37,394.565 495.5,386C 506.842,384.491 510.009,388.991 505,399.5C 496.663,410.833 489.329,422.833 483,435.5C 473.115,460.518 472.115,485.851 480,511.5C 481.4,514.902 483.567,517.736 486.5,520C 491.119,521.176 493.119,519.342 492.5,514.5C 489.556,498.784 487.556,482.951 486.5,467C 486.769,438.833 497.103,415.166 517.5,396C 547.457,374.869 578.791,372.869 611.5,390C 637.189,407.39 654.023,431.224 662,461.5C 663.968,467.702 665.135,474.035 665.5,480.5 Z"/></g>
<g><path style="opacity:1" fill="#d9d7ce" d="M 488.5,431.5 C 489.043,431.56 489.376,431.893 489.5,432.5C 483.775,449.022 481.941,466.022 484,483.5C 485.51,493.562 487.344,503.562 489.5,513.5C 489.167,514.5 488.833,515.5 488.5,516.5C 484.473,513.12 481.973,508.786 481,503.5C 475.953,478.675 478.453,454.675 488.5,431.5 Z"/></g>
<g><path style="opacity:1" fill="#e2e0d4" d="M 726.5,832.5 C 746.642,839.329 767.308,843.996 788.5,846.5C 794.405,853.307 799.571,860.641 804,868.5C 805.428,873.739 803.428,875.739 798,874.5C 794.448,874.359 790.948,873.859 787.5,873C 764.719,864.208 744.552,851.374 727,834.5C 726.536,833.906 726.369,833.239 726.5,832.5 Z"/></g>
<g><path style="opacity:1" fill="#e6e4d7" d="M 371.5,845.5 C 389.851,844.338 405.684,850.004 419,862.5C 424.468,870.601 430.301,878.434 436.5,886C 432.761,884.884 430.761,886.384 430.5,890.5C 440.397,930.169 432.231,965.502 406,996.5C 406.506,992.135 407.506,987.801 409,983.5C 409.497,980.854 409.664,978.187 409.5,975.5C 407.61,975.297 406.11,975.963 405,977.5C 400.943,984.124 398.11,991.29 396.5,999C 397.167,1001 397.833,1003 398.5,1005C 380.645,1050.23 361.812,1095.06 342,1139.5C 335.027,1159.77 326.694,1179.44 317,1198.5C 314.338,1202.85 310.505,1205.01 305.5,1205C 301.581,1206.54 298.081,1208.71 295,1211.5C 293.833,1215.67 295.333,1217.17 299.5,1216C 304.064,1213.26 308.731,1210.76 313.5,1208.5C 321.354,1210.43 329.021,1212.93 336.5,1216C 360.563,1228.36 384.563,1240.7 408.5,1253C 457.626,1275.95 508.959,1291.78 562.5,1300.5C 567.955,1300.39 572.955,1298.89 577.5,1296C 581.79,1289.92 585.957,1283.75 590,1277.5C 592.167,1275.33 594.333,1273.17 596.5,1271C 621.262,1252.74 645.595,1233.91 669.5,1214.5C 668.774,1217.46 669.774,1219.96 672.5,1222C 676.548,1222.43 680.548,1222.43 684.5,1222C 675.411,1233.76 665.578,1244.93 655,1255.5C 650.954,1261.76 648.454,1268.59 647.5,1276C 648.022,1287.11 653.688,1291.78 664.5,1290C 672.325,1287.39 679.991,1284.39 687.5,1281C 695.754,1281.15 703.42,1279.15 710.5,1275C 721.483,1266.51 732.816,1258.51 744.5,1251C 753.223,1246.59 762.223,1243.76 771.5,1242.5C 769.371,1245.79 767.704,1249.29 766.5,1253C 745.67,1264.82 726.837,1279.32 710,1296.5C 706.715,1301.45 703.048,1306.12 699,1310.5C 697.872,1312.35 697.372,1314.35 697.5,1316.5C 698.675,1316.72 699.675,1316.39 700.5,1315.5C 702.938,1311.56 705.938,1308.06 709.5,1305C 715.52,1301.63 721.52,1298.3 727.5,1295C 738.228,1292.82 748.894,1290.32 759.5,1287.5C 760.167,1287.67 760.833,1287.83 761.5,1288C 755.874,1290.49 755.208,1293.82 759.5,1298C 746.881,1301.09 734.881,1305.76 723.5,1312C 711.156,1319.5 699.156,1327.5 687.5,1336C 681.264,1339.79 674.597,1342.45 667.5,1344C 628.84,1344.57 591.173,1350.9 554.5,1363C 550.167,1363.67 545.833,1363.67 541.5,1363C 531.648,1359.27 521.648,1355.94 511.5,1353C 425.521,1336.17 341.521,1312.51 259.5,1282C 250.119,1278 240.785,1274 231.5,1270C 235.725,1270.02 239.558,1268.85 243,1266.5C 243.701,1263.07 243.368,1259.74 242,1256.5C 237.246,1244.79 230.413,1234.63 221.5,1226C 216.438,1224.71 212.938,1226.54 211,1231.5C 214.586,1178.24 226.586,1126.91 247,1077.5C 269.43,1027.21 290.096,976.21 309,924.5C 316.737,903.923 326.737,884.59 339,866.5C 345.07,858.756 352.57,852.923 361.5,849C 364.98,847.897 368.313,846.731 371.5,845.5 Z"/></g>
<g><path style="opacity:1" fill="#e3e1d5" d="M 727.5,934.5 C 726.833,935.5 726.167,936.5 725.5,937.5C 720.626,922.748 715.46,908.082 710,893.5C 708.764,880.736 714.431,873.069 727,870.5C 733.017,870.509 736.684,873.509 738,879.5C 738.667,883.167 738.667,886.833 738,890.5C 733.98,905.056 730.48,919.723 727.5,934.5 Z"/></g>
<g><path style="opacity:1" fill="#e4e2d5" d="M 722.5,839.5 C 756.617,859.403 769.784,888.736 762,927.5C 755.469,939.683 747.136,950.35 737,959.5C 734.355,957.565 732.689,954.898 732,951.5C 730,943.5 730,935.5 732,927.5C 735.409,915.94 738.409,904.273 741,892.5C 744.244,881.361 741.077,872.861 731.5,867C 727.299,866.078 723.299,866.578 719.5,868.5C 719.167,868.167 718.833,867.833 718.5,867.5C 722.82,858.571 724.154,849.238 722.5,839.5 Z"/></g>
<g><path style="opacity:1" fill="#dad8cf" d="M 596.5,912.5 C 599.032,903.405 601.865,894.405 605,885.5C 607.975,881.419 611.809,879.753 616.5,880.5C 616.833,881.167 617.167,881.833 617.5,882.5C 612.577,890.258 607.077,897.591 601,904.5C 599.726,907.391 598.226,910.058 596.5,912.5 Z"/></g>
<g><path style="opacity:1" fill="#e4e2d6" d="M 619.5,885.5 C 624.792,888.813 630.459,891.646 636.5,894C 640.442,901.265 642.442,909.099 642.5,917.5C 641.333,927.502 640.166,937.502 639,947.5C 630.112,941.618 622.112,934.618 615,926.5C 609.098,919.122 607.098,910.789 609,901.5C 612.759,896.309 616.259,890.976 619.5,885.5 Z"/></g>
<g><path style="opacity:1" fill="#e3e0d5" d="M 604.5,868.5 C 605.239,868.369 605.906,868.536 606.5,869C 608.126,871.628 610.126,873.961 612.5,876C 608.242,877.384 604.742,879.884 602,883.5C 598.436,892.633 595.436,901.967 593,911.5C 586.671,923.5 577.838,933.333 566.5,941C 553.301,949.697 539.967,958.197 526.5,966.5C 525.959,964.477 526.459,962.477 528,960.5C 538.798,948.901 548.131,936.234 556,922.5C 574.263,906.248 590.43,888.248 604.5,868.5 Z"/></g>
<g><path style="opacity:1" fill="#e5e3d6" d="M 596.5,912.5 C 593.788,923.817 594.955,934.817 600,945.5C 609.766,968.983 627.266,982.816 652.5,987C 657.929,990.712 663.596,993.878 669.5,996.5C 670.994,996.291 672.161,995.624 673,994.5C 673.767,990.406 673.434,986.406 672,982.5C 669.458,976.635 666.125,971.301 662,966.5C 654.934,961.102 648.934,954.769 644,947.5C 643.333,942.833 643.333,938.167 644,933.5C 647.695,921.649 647.195,909.982 642.5,898.5C 651.039,897.87 655.873,901.87 657,910.5C 658.126,911.944 659.626,912.61 661.5,912.5C 670.523,910.655 678.857,907.155 686.5,902C 687.5,901.333 688.5,901.333 689.5,902C 703.189,918.722 714.023,937.222 722,957.5C 730.854,984.563 726.188,1008.9 708,1030.5C 695.029,1044.81 680.862,1057.65 665.5,1069C 663.167,1069.67 660.833,1069.67 658.5,1069C 655.661,1067.08 652.661,1065.41 649.5,1064C 604.416,1061.92 583.916,1038.42 588,993.5C 588.295,981.934 592.628,972.267 601,964.5C 603.5,959 602,957.5 596.5,960C 593.433,963.297 591.267,967.131 590,971.5C 571.848,985.624 552.682,987.124 532.5,976C 530.649,974.316 528.982,972.483 527.5,970.5C 543.946,959.896 560.28,949.063 576.5,938C 585.348,931.011 592.015,922.511 596.5,912.5 Z"/></g>
<g><path style="opacity:1" fill="#e5e3d6" d="M 434.5,890.5 C 456.689,916.888 470.856,947.221 477,981.5C 481.27,1015.43 472.937,1045.76 452,1072.5C 437.806,1089.36 422.306,1104.86 405.5,1119C 382.254,1136.74 360.421,1156.24 340,1177.5C 335.586,1182.66 331.919,1188.32 329,1194.5C 326.495,1199.97 327.328,1204.8 331.5,1209C 326.4,1208.13 321.4,1206.63 316.5,1204.5C 321.338,1198.83 325.172,1192.5 328,1185.5C 347.563,1135.71 368.23,1086.37 390,1037.5C 394.53,1026.24 398.863,1014.91 403,1003.5C 409.723,998.71 415.056,992.71 419,985.5C 437.602,956.136 442.768,924.469 434.5,890.5 Z"/></g>
<g><path style="opacity:1" fill="#dfddd2" d="M 704.5,886.5 C 705.776,892.847 707.61,899.181 710,905.5C 718.053,921.32 723.053,937.987 725,955.5C 716.489,934.849 705.322,915.849 691.5,898.5C 696.055,894.725 700.389,890.725 704.5,886.5 Z"/></g>
<g><path style="opacity:1" fill="#d3d2ce" d="M 510.5,960.5 C 510.5,960.833 510.5,961.167 510.5,961.5C 489.051,941.548 468.718,920.382 449.5,898C 450.167,897.333 450.833,897.333 451.5,898C 468,915.833 485.167,933 503,949.5C 505.51,953.195 508.01,956.862 510.5,960.5 Z"/></g>
<g><path style="opacity:1" fill="#e3e1d5" d="M 603.5,906.5 C 604.553,915.468 608.053,923.468 614,930.5C 617.833,934.333 621.667,938.167 625.5,942C 637.973,950.66 649.806,960.16 661,970.5C 665.51,976.52 668.676,983.186 670.5,990.5C 670.167,991.5 669.833,992.5 669.5,993.5C 664.634,990.136 659.634,986.969 654.5,984C 645.325,981.123 636.325,977.79 627.5,974C 607.505,960.176 598.005,941.01 599,916.5C 599.836,912.809 601.336,909.476 603.5,906.5 Z"/></g>
<g><path style="opacity:1" fill="#6d6c6c" d="M 727.5,934.5 C 727.663,936.857 727.497,939.19 727,941.5C 726.209,940.255 725.709,938.922 725.5,937.5C 726.167,936.5 726.833,935.5 727.5,934.5 Z"/></g>
<g><path style="opacity:1" fill="#e3e1d5" d="M 764.5,929.5 C 765.445,935.83 765.445,942.33 764.5,949C 764.838,955.201 765.505,961.368 766.5,967.5C 766.167,968.833 765.833,970.167 765.5,971.5C 761.007,973.579 756.674,975.912 752.5,978.5C 754.604,996.317 746.938,1006.98 729.5,1010.5C 729.002,1007.53 728.669,1004.53 728.5,1001.5C 730.42,986.508 730.92,971.508 730,956.5C 731.305,959.638 733.471,961.971 736.5,963.5C 737.938,963.281 739.271,962.781 740.5,962C 750.261,952.415 758.261,941.581 764.5,929.5 Z"/></g>
<g><path style="opacity:1" fill="#e6e4d7" d="M 449.5,903.5 C 454.762,909.936 460.262,916.27 466,922.5C 484.695,940.862 503.029,959.528 521,978.5C 545.583,1007.34 560.083,1040.68 564.5,1078.5C 558.182,1113.77 549.348,1148.44 538,1182.5C 534.559,1193.86 529.059,1204.03 521.5,1213C 516.353,1215.29 511.019,1216.95 505.5,1218C 491.181,1219.19 476.848,1219.52 462.5,1219C 476.531,1209.64 489.364,1198.81 501,1186.5C 505.75,1180.67 509.75,1174.34 513,1167.5C 513.986,1165.08 513.319,1163.41 511,1162.5C 509.51,1163.32 508.01,1164.15 506.5,1165C 492.471,1179.36 478.138,1193.36 463.5,1207C 441.94,1225.63 416.94,1233.63 388.5,1231C 384.42,1230.31 380.42,1229.31 376.5,1228C 362.956,1221.06 349.289,1214.39 335.5,1208C 331.723,1205.05 330.557,1201.21 332,1196.5C 334.82,1190.86 338.153,1185.53 342,1180.5C 365.642,1156.85 390.476,1134.68 416.5,1114C 431.737,1100.76 445.571,1086.26 458,1070.5C 484.83,1030.1 488.83,987.436 470,942.5C 463.747,929.112 456.914,916.112 449.5,903.5 Z"/></g>
<g><path style="opacity:1" fill="#c3c2bb" d="M 584.5,1011.5 C 583.364,1001.99 583.364,992.324 584.5,982.5C 582.692,982.491 581.025,982.991 579.5,984C 581.901,984.805 581.734,985.638 579,986.5C 576.959,985.577 574.792,985.244 572.5,985.5C 577.518,983.222 582.518,981.055 587.5,979C 584.924,989.637 583.924,1000.47 584.5,1011.5 Z"/></g>
<g><path style="opacity:1" fill="#6e6f6c" d="M 402.5,989.5 C 403.495,992.576 402.995,995.576 401,998.5C 401.005,995.464 401.505,992.464 402.5,989.5 Z"/></g>
<g><path style="opacity:1" fill="#e4e2d6" d="M 809.5,1084.5 C 812.85,1084.33 816.183,1084.5 819.5,1085C 820.46,1086.42 821.293,1087.92 822,1089.5C 826.126,1106.21 830.46,1122.88 835,1139.5C 836.879,1146.42 839.713,1152.92 843.5,1159C 838.235,1160.13 833.068,1161.63 828,1163.5C 827.167,1163.17 826.333,1162.83 825.5,1162.5C 817.984,1147.12 812.15,1131.12 808,1114.5C 805.93,1111.3 802.93,1109.63 799,1109.5C 788.67,1111.72 778.503,1114.55 768.5,1118C 698.024,1142.99 627.524,1167.83 557,1192.5C 556.228,1192.36 555.561,1192.02 555,1191.5C 552.526,1184.94 550.36,1178.27 548.5,1171.5C 549.24,1169.11 550.907,1167.61 553.5,1167C 638.927,1139.36 724.26,1111.86 809.5,1084.5 Z"/></g>
<g><path style="opacity:1" fill="#e5e3d6" d="M 793.5,1113.5 C 797.106,1113.21 800.606,1113.54 804,1114.5C 807.461,1125.88 811.128,1137.22 815,1148.5C 817.18,1154.36 820.013,1159.86 823.5,1165C 743.881,1186.57 663.881,1206.57 583.5,1225C 575.252,1226.73 566.918,1227.56 558.5,1227.5C 556.903,1216.9 556.237,1206.24 556.5,1195.5C 566.349,1193.38 576.016,1190.55 585.5,1187C 654.7,1161.77 724.033,1137.27 793.5,1113.5 Z"/></g>
<g><path style="opacity:1" fill="#e3e1d5" d="M 544.5,1173.5 C 547.267,1179.61 549.767,1185.95 552,1192.5C 552.333,1203.83 552.667,1215.17 553,1226.5C 555.052,1229.46 554.886,1232.29 552.5,1235C 546.725,1237.92 540.725,1240.26 534.5,1242C 533.903,1243.06 533.57,1244.23 533.5,1245.5C 537.369,1255.27 541.536,1264.93 546,1274.5C 547.242,1276.54 549.075,1277.71 551.5,1278C 546.944,1280.3 544.944,1283.8 545.5,1288.5C 539.057,1284.72 534.39,1279.39 531.5,1272.5C 535.518,1270.67 537.018,1267.67 536,1263.5C 533.227,1261.95 530.227,1260.95 527,1260.5C 521.506,1250.53 518.172,1239.86 517,1228.5C 515.999,1225.83 514.499,1223.49 512.5,1221.5C 518.399,1219.3 523.565,1215.97 528,1211.5C 535.404,1199.69 540.904,1187.02 544.5,1173.5 Z"/></g>
<g><path style="opacity:1" fill="#d1d0ca" d="M 445.5,1229.5 C 444.739,1228.61 443.739,1227.94 442.5,1227.5C 441.274,1228.36 439.94,1228.36 438.5,1227.5C 447.864,1222.32 456.864,1216.48 465.5,1210C 479.971,1196.53 494.138,1182.7 508,1168.5C 506.591,1172.31 504.591,1175.97 502,1179.5C 489.434,1194.21 474.934,1206.71 458.5,1217C 456.448,1219.71 453.781,1221.71 450.5,1223C 448.45,1224.97 446.783,1227.13 445.5,1229.5 Z"/></g>
<g><path style="opacity:1" fill="#deded4" d="M 682.5,1207.5 C 684.527,1207.34 686.527,1207.5 688.5,1208C 689.554,1209.39 689.72,1210.89 689,1212.5C 684.863,1217.15 679.696,1219.49 673.5,1219.5C 673.357,1217.74 673.691,1216.07 674.5,1214.5C 677.212,1212.12 679.878,1209.78 682.5,1207.5 Z"/></g>
<g><path style="opacity:1" fill="#e3e1d5" d="M 667.5,1208.5 C 668.873,1208.34 670.207,1208.51 671.5,1209C 671.167,1209.33 670.833,1209.67 670.5,1210C 645.526,1229.82 620.193,1249.15 594.5,1268C 592,1270.5 589.5,1273 587,1275.5C 582.957,1281.75 578.79,1287.92 574.5,1294C 567.276,1296.86 559.942,1297.19 552.5,1295C 554.072,1291.81 553.239,1289.31 550,1287.5C 549.333,1286.17 549.333,1284.83 550,1283.5C 562.584,1278.08 575.417,1273.25 588.5,1269C 591.106,1268.55 592.439,1267.05 592.5,1264.5C 578.668,1267 565.001,1270.33 551.5,1274.5C 550.833,1274.17 550.167,1273.83 549.5,1273.5C 545.167,1264.17 540.833,1254.83 536.5,1245.5C 543.15,1243.34 549.484,1240.51 555.5,1237C 556.861,1235.42 557.528,1233.58 557.5,1231.5C 572.358,1230.75 587.025,1228.58 601.5,1225C 623.799,1220.09 645.799,1214.59 667.5,1208.5 Z"/></g>
<g><path style="opacity:1" fill="#e5e3d6" d="M 491.5,1222.5 C 497.577,1222.2 503.577,1222.7 509.5,1224C 510.333,1224.83 511.167,1225.67 512,1226.5C 514.318,1234.07 516.318,1241.74 518,1249.5C 520.139,1255.11 522.806,1260.45 526,1265.5C 526.494,1267.13 526.66,1268.8 526.5,1270.5C 510.019,1274.09 493.352,1275.26 476.5,1274C 461.436,1272.27 451.936,1264.1 448,1249.5C 447.333,1244.17 447.333,1238.83 448,1233.5C 449.251,1228.58 452.251,1225.25 457,1223.5C 460.589,1225.07 464.422,1225.74 468.5,1225.5C 476.401,1225.23 484.068,1224.23 491.5,1222.5 Z"/></g>
<g><path style="opacity:1" fill="#e1dfd3" d="M 438.5,1227.5 C 439.94,1228.36 441.274,1228.36 442.5,1227.5C 443.739,1227.94 444.739,1228.61 445.5,1229.5C 441.543,1243.98 444.543,1256.81 454.5,1268C 427.264,1258.14 400.93,1246.14 375.5,1232C 396.933,1237.51 417.933,1236.01 438.5,1227.5 Z"/></g>
<g><path style="opacity:1" fill="#e4e2d6" d="M 782.5,1253.5 C 782.167,1252.83 781.833,1252.17 781.5,1251.5C 786.836,1247.99 787.836,1243.49 784.5,1238C 778.098,1237.18 771.765,1237.52 765.5,1239C 755.034,1242.23 745.034,1246.57 735.5,1252C 724.636,1261.2 712.97,1269.2 700.5,1276C 696.5,1276.33 692.5,1276.67 688.5,1277C 680.709,1280.56 672.709,1283.56 664.5,1286C 655.209,1289.04 650.876,1285.71 651.5,1276C 652.148,1266.87 655.648,1259.04 662,1252.5C 671.746,1242.76 680.746,1232.42 689,1221.5C 691.201,1217.93 692.701,1214.1 693.5,1210C 692.97,1207.79 691.97,1205.79 690.5,1204C 741.155,1190.5 791.822,1177 842.5,1163.5C 847.597,1165.14 851.763,1168.14 855,1172.5C 860.076,1180.25 865.909,1187.41 872.5,1194C 804.425,1209.18 737.092,1226.85 670.5,1247C 670.043,1247.41 669.709,1247.91 669.5,1248.5C 670.667,1248.83 671.833,1249.17 673,1249.5C 745.014,1234.6 816.514,1217.6 887.5,1198.5C 885.171,1216.77 883.505,1235.11 882.5,1253.5C 837.247,1264.81 791.914,1275.81 746.5,1286.5C 745.833,1286.33 745.167,1286.17 744.5,1286C 752.107,1281.39 759.441,1276.39 766.5,1271C 771.81,1267.89 777.477,1265.56 783.5,1264C 789.168,1259.57 788.835,1256.07 782.5,1253.5 Z"/></g>
<g><path style="opacity:1" fill="#b9b9b5" d="M 859.5,1201.5 C 829.768,1209.93 799.768,1217.77 769.5,1225C 759.196,1227.5 748.862,1229.5 738.5,1231C 778.516,1219.75 818.849,1209.91 859.5,1201.5 Z"/></g>
<g><path style="opacity:1" fill="#7d7c7b" d="M 859.5,1201.5 C 863.203,1199.59 867.203,1198.76 871.5,1199C 867.586,1200.28 863.586,1201.12 859.5,1201.5 Z"/></g>
<g><path style="opacity:1" fill="#cecfca" d="M 778.5,1240.5 C 779.978,1240.24 781.311,1240.57 782.5,1241.5C 779.817,1245.15 776.484,1247.15 772.5,1247.5C 773.833,1244.51 775.833,1242.17 778.5,1240.5 Z"/></g>
<g><path style="opacity:1" fill="#e3e0d5" d="M 216.5,1229.5 C 218.655,1229.37 220.655,1229.87 222.5,1231C 229.215,1240.26 235.048,1250.09 240,1260.5C 240.72,1262.11 240.554,1263.61 239.5,1265C 228.972,1267 220.138,1264.17 213,1256.5C 209.033,1246.84 210.199,1237.84 216.5,1229.5 Z"/></g>
<g><path style="opacity:1" fill="#646361" d="M 781.5,1251.5 C 781.833,1252.17 782.167,1252.83 782.5,1253.5C 778.775,1253.59 775.109,1253.76 771.5,1254C 774.679,1252.75 778.012,1251.92 781.5,1251.5 Z"/></g>
<g><path style="opacity:1" fill="#9e9d98" d="M 781.5,1257.5 C 783.337,1257.64 783.67,1258.31 782.5,1259.5C 773.58,1263.52 773.247,1262.86 781.5,1257.5 Z"/></g>
<g><path style="opacity:1" fill="#cbccc8" d="M 530.5,1264.5 C 532.225,1264.84 532.725,1265.84 532,1267.5C 530.961,1266.76 530.461,1265.76 530.5,1264.5 Z"/></g>
<g><path style="opacity:1" fill="#ccc9c1" d="M 869.5,1260.5 C 863.014,1262.54 856.681,1265.04 850.5,1268C 852.158,1268.73 852.658,1269.89 852,1271.5C 849.638,1269.23 846.971,1268.9 844,1270.5C 843.619,1269.52 842.786,1268.85 841.5,1268.5C 835.149,1270.07 828.816,1271.74 822.5,1273.5C 820.34,1273.77 818.674,1274.77 817.5,1276.5C 813.682,1276.33 809.682,1276.33 805.5,1276.5C 826.573,1270.57 847.907,1265.23 869.5,1260.5 Z"/></g>
<g><path style="opacity:1" fill="#dfddd2" d="M 524.5,1273.5 C 525.978,1273.24 527.311,1273.57 528.5,1274.5C 532.696,1283.53 539.363,1290.03 548.5,1294C 527.364,1290.88 506.698,1285.88 486.5,1279C 498.209,1278.03 509.875,1276.7 521.5,1275C 522.737,1274.77 523.737,1274.27 524.5,1273.5 Z"/></g>
<g><path style="opacity:1" fill="#dddcd2" d="M 774.5,1256.5 C 775.043,1256.56 775.376,1256.89 775.5,1257.5C 772.794,1259.52 771.461,1262.19 771.5,1265.5C 760.764,1270.37 750.764,1276.54 741.5,1284C 736.588,1286.37 731.755,1288.87 727,1291.5C 725.513,1289.73 725.18,1287.73 726,1285.5C 740.807,1273.52 756.974,1263.85 774.5,1256.5 Z"/></g>
<g><path style="opacity:1" fill="#c6c5be" d="M 721.5,1289.5 C 722.249,1290.53 722.915,1291.7 723.5,1293C 720.77,1295.2 717.77,1296.54 714.5,1297C 717.039,1294.63 719.372,1292.13 721.5,1289.5 Z"/></g>
<g><path style="opacity:1" fill="#d3d4cc" d="M 762.5,1290.5 C 764.857,1290.34 767.19,1290.5 769.5,1291C 770.727,1292.59 770.394,1293.92 768.5,1295C 765.854,1295.5 763.187,1295.66 760.5,1295.5C 760.392,1293.49 761.058,1291.82 762.5,1290.5 Z"/></g>
<text y="200" style="font-size:{{ font_size }}px;font-weight:bold;fill:{{ color5 }};">
    {%- for line in title|wrap(20) %}
    <tspan font-family="{{ font }}" text-anchor="middle" x="600" dx="0" dy="{{ font_size }}">{{ line }}</tspan>
    {%- endfor %}
</text>
<text y="1555" style="font-size:{{ font_size_author }}px;font-weight:bold;fill:{{ color5 }};">
	{%- for author in authors %}
	<tspan font-family="{{ font }}" text-anchor="middle" x="600" dx="0" dy="-{{ font_size_author }}">{{ author }}</tspan>
	{%- endfor %}
</text>
</svg>
