<?xml version="1.0" encoding="UTF-8"?>
<!DOCTYPE svg PUBLIC "-//W3C//DTD SVG 1.1//EN" "http://www.w3.org/Graphics/SVG/1.1/DTD/svg11.dtd">
<svg xmlns="http://www.w3.org/2000/svg" version="1.1" width="1200px" height="1635px" style="shape-rendering:geometricPrecision; text-rendering:geometricPrecision; image-rendering:optimizeQuality; fill-rule:evenodd; clip-rule:evenodd" xmlns:xlink="http://www.w3.org/1999/xlink">
<g><path style="opacity:1" fill="#f78c6f" d="M -0.5,-0.5 C 267.833,-0.5 536.167,-0.5 804.5,-0.5C 800.155,5.50939 795.155,10.8427 789.5,15.5C 788.5,15.5 787.5,15.5 786.5,15.5C 786.5,16.5 786.5,17.5 786.5,18.5C 785.5,18.5 784.5,18.5 783.5,18.5C 783.5,19.5 783.5,20.5 783.5,21.5C 783.5,21.8333 783.5,22.1667 783.5,22.5C 780.287,23.0601 777.287,24.2268 774.5,26C 774.833,26.3333 775.167,26.6667 775.5,27C 773.561,27.9078 772.561,29.4078 772.5,31.5C 769.931,31.7377 768.265,33.071 767.5,35.5C 767.262,37.4044 766.262,38.7377 764.5,39.5C 761.796,39.6696 760.129,41.0029 759.5,43.5C 756.478,45.2107 753.811,47.2107 751.5,49.5C 748.418,50.7267 745.418,52.2267 742.5,54C 741.29,55.0391 740.29,56.2058 739.5,57.5C 735.833,59.5 732.167,61.5 728.5,63.5C 727.127,63.3433 725.793,63.51 724.5,64C 722.602,65.417 720.936,66.917 719.5,68.5C 719.5,68.8333 719.5,69.1667 719.5,69.5C 714.323,70.6161 709.489,72.6161 705,75.5C 700.052,73.3678 696.219,74.8678 693.5,80C 693.833,80.3333 694.167,80.6667 694.5,81C 692.833,81.3333 691.167,81.6667 689.5,82C 688.244,82.4169 687.577,83.2502 687.5,84.5C 686.791,85.404 685.791,85.7373 684.5,85.5C 679.748,86.1931 675.415,87.8598 671.5,90.5C 669.739,91.3127 668.072,92.3127 666.5,93.5C 657.533,95.9918 648.533,98.3251 639.5,100.5C 633.823,100.378 628.49,101.378 623.5,103.5C 621.052,104.473 618.385,104.806 615.5,104.5C 586.195,106.767 556.862,107.101 527.5,105.5C 516.765,105.156 506.098,104.156 495.5,102.5C 490.432,100.822 485.098,100.156 479.5,100.5C 476.615,100.806 473.948,100.473 471.5,99.5C 463.729,97.8446 455.729,97.1779 447.5,97.5C 441.009,96.8337 434.342,96.5004 427.5,96.5C 417.948,96.2982 408.615,96.9649 399.5,98.5C 399.5,98.8333 399.5,99.1667 399.5,99.5C 395.818,99.3347 392.152,99.5014 388.5,100C 385.809,100.156 383.476,100.989 381.5,102.5C 380.833,102.5 380.167,102.5 379.5,102.5C 373.58,103.817 367.58,104.483 361.5,104.5C 355.69,106.146 349.69,107.313 343.5,108C 342.177,108.816 341.511,109.983 341.5,111.5C 329.319,115.216 317.319,119.549 305.5,124.5C 304.2,123.892 302.867,123.225 301.5,122.5C 299.777,123.552 298.11,123.552 296.5,122.5C 294.829,124.51 294.162,126.843 294.5,129.5C 293.448,129.351 292.448,129.517 291.5,130C 289.681,130.74 288.348,131.907 287.5,133.5C 281.21,134.974 275.877,137.974 271.5,142.5C 260.259,149.742 249.593,157.742 239.5,166.5C 236.319,168.837 232.986,171.004 229.5,173C 220.965,181.702 212.298,190.202 203.5,198.5C 201.857,198.48 200.524,199.147 199.5,200.5C 198.015,202.852 196.682,205.186 195.5,207.5C 193.597,208.947 191.93,210.614 190.5,212.5C 184.604,214.061 180.604,217.728 178.5,223.5C 172.863,230.804 166.53,237.471 159.5,243.5C 157.5,243.167 155.5,242.833 153.5,242.5C 153.5,244.167 153.5,245.833 153.5,247.5C 152.127,247.343 150.793,247.51 149.5,248C 148.167,248.667 148.167,249.333 149.5,250C 148.5,250.333 147.5,250.667 146.5,251C 146.833,251.333 147.167,251.667 147.5,252C 145.703,253.531 144.37,255.364 143.5,257.5C 141.712,257.215 140.045,257.548 138.5,258.5C 136.433,263.283 132.767,265.95 127.5,266.5C 127.5,267.833 127.5,269.167 127.5,270.5C 127.5,271.167 127.167,271.5 126.5,271.5C 124.833,271.5 123.167,271.5 121.5,271.5C 121.169,273.322 120.502,274.989 119.5,276.5C 116.797,278.181 114.131,279.847 111.5,281.5C 108.813,281.336 106.146,281.503 103.5,282C 96.6988,286.159 89.3654,288.993 81.5,290.5C 79.9951,291.842 79.3285,293.508 79.5,295.5C 74.4615,294.691 70.1282,295.857 66.5,299C 61.511,299.749 56.511,300.415 51.5,301C 49.563,301.122 48.2297,301.955 47.5,303.5C 40.1667,303.5 32.8333,303.5 25.5,303.5C 24.8777,301.665 23.5444,300.498 21.5,300C 17.1667,299.667 12.8333,299.333 8.5,299C 5.75298,297.396 2.75298,296.562 -0.5,296.5C -0.5,197.5 -0.5,98.5 -0.5,-0.5 Z"/></g>
<g><path style="opacity:1" fill="#fcfbf9" d="M 804.5,-0.5 C 831.167,-0.5 857.833,-0.5 884.5,-0.5C 864.045,27.077 842.045,53.4103 818.5,78.5C 817.675,79.3857 816.675,79.719 815.5,79.5C 814.861,81.7604 813.694,83.7604 812,85.5C 808.384,88.1081 805.217,91.1081 802.5,94.5C 801.675,95.3857 800.675,95.719 799.5,95.5C 799.649,96.552 799.483,97.552 799,98.5C 793.622,102.265 788.789,106.598 784.5,111.5C 779.196,115.491 773.863,119.491 768.5,123.5C 767.571,124.689 767.238,126.022 767.5,127.5C 765.801,127.34 764.134,127.506 762.5,128C 749.321,138.423 735.321,147.589 720.5,155.5C 719.571,156.689 719.238,158.022 719.5,159.5C 715.727,159.263 712.06,159.763 708.5,161C 696.303,166.671 683.97,171.838 671.5,176.5C 657.189,179.982 642.856,183.482 628.5,187C 617.611,188.025 606.944,189.525 596.5,191.5C 589.289,191.458 582.289,192.125 575.5,193.5C 548.842,194.333 522.176,194.667 495.5,194.5C 479.132,193.849 463.132,194.515 447.5,196.5C 442.167,197.167 436.833,197.833 431.5,198.5C 396.358,201.827 363.025,211.327 331.5,227C 317.518,234.975 303.852,243.308 290.5,252C 289.552,252.483 288.552,252.649 287.5,252.5C 287.5,253.5 287.5,254.5 287.5,255.5C 283.83,255.811 280.83,257.478 278.5,260.5C 272.556,262.649 267.556,266.149 263.5,271C 243.129,283.04 223.462,296.373 204.5,311C 199.553,312.473 195.219,314.973 191.5,318.5C 172.594,329.37 153.094,339.037 133,347.5C 131.175,347.943 129.342,348.277 127.5,348.5C 127.5,349.5 127.5,350.5 127.5,351.5C 122.995,351.271 118.661,351.937 114.5,353.5C 110.486,353.334 106.486,353.501 102.5,354C 101.5,355 100.5,356 99.5,357C 93.1228,357.986 86.7894,359.152 80.5,360.5C 79.8333,360.167 79.1667,359.833 78.5,359.5C 77.4096,360.727 76.0762,361.56 74.5,362C 67.3333,362.167 60.1667,362.333 53,362.5C 45.2058,362.451 37.5392,361.784 30,360.5C 28.6994,360.96 27.366,361.294 26,361.5C 17.432,358.95 8.59864,357.95 -0.5,358.5C -0.5,338.167 -0.5,317.833 -0.5,297.5C 7.95284,300.447 16.6195,302.447 25.5,303.5C 32.8333,303.5 40.1667,303.5 47.5,303.5C 55.029,303.116 62.3623,301.783 69.5,299.5C 72.9404,298.489 76.2737,297.489 79.5,296.5C 90.6501,292.304 101.317,287.304 111.5,281.5C 114.131,279.847 116.797,278.181 119.5,276.5C 122.4,275.557 124.733,273.89 126.5,271.5C 127.167,271.5 127.5,271.167 127.5,270.5C 132.602,267.245 137.602,263.745 142.5,260C 143.252,259.329 143.586,258.496 143.5,257.5C 148.77,254.558 153.437,250.892 157.5,246.5C 159.482,246.005 161.482,245.505 163.5,245C 166.007,241.327 169.007,238.16 172.5,235.5C 173.386,234.675 173.719,233.675 173.5,232.5C 178.53,232.157 181.697,229.49 183,224.5C 189.088,218.749 194.755,212.749 200,206.5C 201.009,204.975 201.509,203.308 201.5,201.5C 209.492,199.013 215.159,193.847 218.5,186C 220.434,184.647 222.267,183.147 224,181.5C 224.333,181.833 224.667,182.167 225,182.5C 227.333,180.833 229.333,178.833 231,176.5C 231.333,176.833 231.667,177.167 232,177.5C 233.316,174.397 235.482,172.063 238.5,170.5C 239.429,169.311 239.762,167.978 239.5,166.5C 249.593,157.742 260.259,149.742 271.5,142.5C 276.841,139.497 282.175,136.497 287.5,133.5C 290.98,131.95 294.314,130.116 297.5,128C 298.793,127.51 300.127,127.343 301.5,127.5C 307.806,126.18 313.806,124.013 319.5,121C 322.5,120.667 325.5,120.333 328.5,120C 330.054,118.108 331.888,116.608 334,115.5C 337.579,116.48 340.746,115.646 343.5,113C 342.944,112.617 342.611,112.117 342.5,111.5C 345.917,109.628 349.583,108.628 353.5,108.5C 360.657,106.354 367.99,105.02 375.5,104.5C 377.333,104.415 378.666,103.748 379.5,102.5C 380.167,102.5 380.833,102.5 381.5,102.5C 387.709,101.979 393.709,100.979 399.5,99.5C 399.5,99.1667 399.5,98.8333 399.5,98.5C 415.491,97.8336 431.491,97.5003 447.5,97.5C 455.284,99.0101 463.284,99.6768 471.5,99.5C 473.948,100.473 476.615,100.806 479.5,100.5C 484.646,101.551 489.979,102.218 495.5,102.5C 506.098,104.156 516.765,105.156 527.5,105.5C 540.571,107.947 553.905,108.947 567.5,108.5C 579.523,108.5 591.523,108 603.5,107C 607.796,106.924 611.796,106.091 615.5,104.5C 618.385,104.806 621.052,104.473 623.5,103.5C 629.177,103.622 634.51,102.622 639.5,100.5C 648.533,98.3251 657.533,95.9918 666.5,93.5C 672.168,94.0026 677.168,92.5026 681.5,89C 685.017,87.4715 688.683,86.4715 692.5,86C 694.359,84.0186 696.692,83.0186 699.5,83C 700.337,81.9887 700.67,80.8221 700.5,79.5C 706.515,75.3969 712.848,72.0636 719.5,69.5C 719.5,69.1667 719.5,68.8333 719.5,68.5C 722.992,67.5903 725.992,65.9236 728.5,63.5C 732.167,61.5 735.833,59.5 739.5,57.5C 744.113,55.7417 748.113,53.0751 751.5,49.5C 753.811,47.2107 756.478,45.2107 759.5,43.5C 761.389,42.396 763.055,41.0627 764.5,39.5C 766.262,38.7377 767.262,37.4044 767.5,35.5C 768.922,35.2914 770.255,34.7914 771.5,34C 775.193,29.7089 779.193,25.8756 783.5,22.5C 783.5,22.1667 783.5,21.8333 783.5,21.5C 786.478,20.5223 788.478,18.5223 789.5,15.5C 795.155,10.8427 800.155,5.50939 804.5,-0.5 Z"/></g>
<g><path style="opacity:1" fill="#fcfbf9" d="M 891.5,-0.5 C 949.167,-0.5 1006.83,-0.5 1064.5,-0.5C 1047.33,13.2571 1030.33,27.2571 1013.5,41.5C 1012.5,41.5858 1011.67,41.2524 1011,40.5C 1008.77,42.2847 1007.61,44.6181 1007.5,47.5C 987.45,64.3843 969.617,83.3843 954,104.5C 951.215,109.735 948.715,115.069 946.5,120.5C 944.166,122.176 943.166,124.509 943.5,127.5C 941.251,132.586 940.251,137.919 940.5,143.5C 939.349,148.65 939.183,153.984 940,159.5C 940.139,162.445 941.306,164.779 943.5,166.5C 950.28,180.451 960.946,189.951 975.5,195C 986.25,197.237 995.917,195.071 1004.5,188.5C 1006.36,191.226 1007.36,194.226 1007.5,197.5C 1008.38,206.133 1008.71,214.8 1008.5,223.5C 1007.81,228.882 1006.48,234.216 1004.5,239.5C 998.055,255.387 990.222,270.72 981,285.5C 977.933,290.963 975.433,296.63 973.5,302.5C 959.862,323.72 954.028,347.053 956,372.5C 957.945,380.918 962.111,387.918 968.5,393.5C 968.918,394.222 969.584,394.722 970.5,395C 977.205,396.625 982.871,395.125 987.5,390.5C 994.398,385.109 1000.9,379.109 1007,372.5C 1015.42,359.328 1024.09,346.328 1033,333.5C 1039.73,325.387 1047.57,318.553 1056.5,313C 1066.58,307.817 1077.24,306.15 1088.5,308C 1101.86,313.37 1109.7,323.204 1112,337.5C 1112.65,351.368 1112.15,365.202 1110.5,379C 1109.38,397.153 1114.72,412.986 1126.5,426.5C 1128.85,427.861 1131.18,429.194 1133.5,430.5C 1135.81,431.164 1138.31,431.497 1141,431.5C 1144.8,431.696 1148.3,431.03 1151.5,429.5C 1155.83,425.833 1159.83,421.833 1163.5,417.5C 1166.08,416.015 1167.42,413.682 1167.5,410.5C 1168.82,410.67 1169.99,410.337 1171,409.5C 1172.25,403.411 1173.42,397.411 1174.5,391.5C 1176.21,382.764 1179.54,374.764 1184.5,367.5C 1185.68,367.719 1186.68,367.386 1187.5,366.5C 1189.14,362.299 1191.97,360.299 1196,360.5C 1196.82,359.177 1197.98,358.511 1199.5,358.5C 1199.5,479.5 1199.5,600.5 1199.5,721.5C 1195.37,729.269 1191.54,737.269 1188,745.5C 1185,758.142 1182,770.809 1179,783.5C 1178,794.167 1177,804.833 1176,815.5C 1175.5,848.522 1174.5,881.522 1173,914.5C 1171.42,924.132 1170.09,933.799 1169,943.5C 1163.77,964.936 1158.27,986.269 1152.5,1007.5C 1149.75,1025.21 1149.91,1042.88 1153,1060.5C 1161.18,1083.51 1176.68,1098.85 1199.5,1106.5C 1199.5,1210.83 1199.5,1315.17 1199.5,1419.5C 1189.6,1416.09 1179.43,1413.75 1169,1412.5C 1155.47,1413.43 1144.47,1419.1 1136,1429.5C 1128.98,1438.87 1122.98,1448.87 1118,1459.5C 1101.28,1479.95 1081.45,1496.78 1058.5,1510C 1046.47,1514.41 1034.8,1519.24 1023.5,1524.5C 993.413,1532.22 963.08,1533.39 932.5,1528C 919.822,1524.5 907.489,1520.33 895.5,1515.5C 895.5,1514.5 895.5,1513.5 895.5,1512.5C 892.208,1512.35 889.208,1511.35 886.5,1509.5C 868.166,1498.69 850.166,1487.19 832.5,1475C 831.663,1473.99 831.33,1472.82 831.5,1471.5C 829.801,1471.66 828.134,1471.49 826.5,1471C 807.212,1458.12 786.212,1449.12 763.5,1444C 747.1,1441.7 730.767,1442.03 714.5,1445C 705.409,1447.35 696.409,1449.85 687.5,1452.5C 687.5,1453.5 687.5,1454.5 687.5,1455.5C 682.636,1455.76 677.97,1456.92 673.5,1459C 667.593,1462.45 661.593,1465.62 655.5,1468.5C 655.5,1469.5 655.5,1470.5 655.5,1471.5C 653.473,1471.34 651.473,1471.5 649.5,1472C 635.787,1480.85 622.121,1489.68 608.5,1498.5C 605.234,1501.6 601.901,1504.43 598.5,1507C 592.332,1509.92 586.665,1513.58 581.5,1518C 579.655,1519.13 577.655,1519.63 575.5,1519.5C 575.67,1520.82 575.337,1521.99 574.5,1523C 559.13,1532.68 543.463,1541.85 527.5,1550.5C 507.424,1561.03 486.091,1567.86 463.5,1571C 448.084,1572.04 432.75,1571.37 417.5,1569C 398.098,1563.88 378.765,1558.55 359.5,1553C 339.267,1548.19 319.101,1548.35 299,1553.5C 286.361,1558.32 275.861,1565.98 267.5,1576.5C 261.225,1588.77 257.059,1601.77 255,1615.5C 252.146,1623.16 247.646,1629.49 241.5,1634.5C 215.833,1634.5 190.167,1634.5 164.5,1634.5C 164.263,1633.21 164.596,1632.21 165.5,1631.5C 169.505,1626.81 172.172,1621.47 173.5,1615.5C 175.048,1615.18 175.715,1614.18 175.5,1612.5C 177.467,1612.74 179.301,1612.41 181,1611.5C 181.574,1601.91 183.074,1592.57 185.5,1583.5C 185.833,1578.17 186.167,1572.83 186.5,1567.5C 187.492,1559.68 188.159,1551.68 188.5,1543.5C 187.834,1535.51 187.501,1527.51 187.5,1519.5C 187.215,1508.62 186.215,1497.96 184.5,1487.5C 182.177,1476.94 180.511,1466.28 179.5,1455.5C 179.167,1455.5 178.833,1455.5 178.5,1455.5C 178.701,1449.82 177.701,1444.49 175.5,1439.5C 175.5,1438.17 175.5,1436.83 175.5,1435.5C 175.459,1431.38 174.793,1427.38 173.5,1423.5C 172.828,1417.8 171.828,1412.14 170.5,1406.5C 170.564,1401.41 171.898,1396.74 174.5,1392.5C 173.675,1391.61 172.675,1391.28 171.5,1391.5C 171.54,1394.42 170.707,1397.09 169,1399.5C 168.667,1397.17 168.333,1394.83 168,1392.5C 167.329,1391.75 166.496,1391.41 165.5,1391.5C 165.167,1391.5 164.833,1391.5 164.5,1391.5C 164.66,1389.8 164.494,1388.13 164,1386.5C 161.499,1379.82 158.999,1373.16 156.5,1366.5C 154.163,1359.7 151.663,1353.03 149,1346.5C 148.148,1345.43 147.315,1344.43 146.5,1343.5C 146.5,1341.83 146.5,1340.17 146.5,1338.5C 145.5,1338.5 144.5,1338.5 143.5,1338.5C 139.411,1331.98 135.078,1325.65 130.5,1319.5C 129.026,1317.02 128.026,1314.35 127.5,1311.5C 124.618,1310.62 122.285,1308.95 120.5,1306.5C 117.051,1303.07 114.051,1299.4 111.5,1295.5C 110.5,1295.5 109.5,1295.5 108.5,1295.5C 99.4748,1288.39 89.8081,1282.39 79.5,1277.5C 74.6068,1274.74 69.2735,1273.07 63.5,1272.5C 55.7086,1270.42 47.7086,1268.75 39.5,1267.5C 26.1794,1266.67 12.8461,1266.33 -0.5,1266.5C -0.5,966.167 -0.5,665.833 -0.5,365.5C 4.73675,366.817 10.0701,367.483 15.5,367.5C 16.6085,368.29 17.9419,368.79 19.5,369C 36.8098,370.466 54.1432,370.799 71.5,370C 74.6752,370.053 77.3419,369.22 79.5,367.5C 82.1667,367.5 84.8333,367.5 87.5,367.5C 99.7381,365.693 111.405,362.193 122.5,357C 125.529,356.461 128.529,355.794 131.5,355C 138.168,352.425 144.835,349.758 151.5,347C 158.864,342.433 166.53,338.433 174.5,335C 194.703,323.22 214.703,310.887 234.5,298C 261.93,277.386 290.264,258.219 319.5,240.5C 331.902,234.482 344.235,228.315 356.5,222C 391.026,209.395 426.692,202.895 463.5,202.5C 488.856,203.157 513.856,202.491 538.5,200.5C 551.031,200.65 563.364,199.984 575.5,198.5C 586.438,198.809 597.105,197.809 607.5,195.5C 634.098,192.747 660.098,187.247 685.5,179C 686.973,178.29 687.64,177.124 687.5,175.5C 690.187,175.664 692.854,175.497 695.5,175C 715.778,165.865 735.112,155.198 753.5,143C 763.75,135.388 773.75,127.555 783.5,119.5C 816.491,90.3367 846.658,58.3367 874,23.5C 875.481,20.89 876.648,18.2234 877.5,15.5C 879.144,15.7135 880.644,15.3802 882,14.5C 884.898,9.26499 888.064,4.26499 891.5,-0.5 Z"/></g>
<g><path style="opacity:1" fill="#11c3c7" d="M 1064.5,-0.5 C 1109.5,-0.5 1154.5,-0.5 1199.5,-0.5C 1199.5,118.167 1199.5,236.833 1199.5,355.5C 1197.69,355.491 1196.02,355.991 1194.5,357C 1190.29,359.711 1186.95,363.211 1184.5,367.5C 1179.54,374.764 1176.21,382.764 1174.5,391.5C 1170.85,400.09 1167.19,408.757 1163.5,417.5C 1159.83,421.833 1155.83,425.833 1151.5,429.5C 1145.54,430.307 1139.54,430.64 1133.5,430.5C 1131.18,429.194 1128.85,427.861 1126.5,426.5C 1114.72,412.986 1109.38,397.153 1110.5,379C 1112.15,365.202 1112.65,351.368 1112,337.5C 1109.7,323.204 1101.86,313.37 1088.5,308C 1077.24,306.15 1066.58,307.817 1056.5,313C 1047.57,318.553 1039.73,325.387 1033,333.5C 1024.09,346.328 1015.42,359.328 1007,372.5C 1000.9,379.109 994.398,385.109 987.5,390.5C 981.464,393.09 975.13,394.09 968.5,393.5C 962.111,387.918 957.945,380.918 956,372.5C 954.028,347.053 959.862,323.72 973.5,302.5C 974.672,303.705 976.005,303.705 977.5,302.5C 981.761,289.691 988.095,277.858 996.5,267C 997.448,266.517 998.448,266.351 999.5,266.5C 999.383,268.484 1000.05,270.15 1001.5,271.5C 1001.83,270.833 1002.17,270.167 1002.5,269.5C 1001.17,266.833 999.833,264.167 998.5,261.5C 1001.59,255.049 1004.26,248.382 1006.5,241.5C 1006.25,240.287 1005.59,239.62 1004.5,239.5C 1006.48,234.216 1007.81,228.882 1008.5,223.5C 1009.66,215.677 1009.82,207.677 1009,199.5C 1008.72,198.584 1008.22,197.918 1007.5,197.5C 1007.36,194.226 1006.36,191.226 1004.5,188.5C 995.917,195.071 986.25,197.237 975.5,195C 960.946,189.951 950.28,180.451 943.5,166.5C 941.127,159.038 940.127,151.371 940.5,143.5C 940.251,137.919 941.251,132.586 943.5,127.5C 945.065,125.491 946.065,123.157 946.5,120.5C 948.715,115.069 951.215,109.735 954,104.5C 969.617,83.3843 987.45,64.3843 1007.5,47.5C 1009.79,45.8818 1011.79,43.8818 1013.5,41.5C 1030.33,27.2571 1047.33,13.2571 1064.5,-0.5 Z"/></g>
<g><path style="opacity:1" fill="#e59d87" d="M 789.5,15.5 C 788.478,18.5223 786.478,20.5223 783.5,21.5C 783.5,20.5 783.5,19.5 783.5,18.5C 784.5,18.5 785.5,18.5 786.5,18.5C 786.5,17.5 786.5,16.5 786.5,15.5C 787.5,15.5 788.5,15.5 789.5,15.5 Z"/></g>
<g><path style="opacity:1" fill="#f3c0aa" d="M 884.5,-0.5 C 886.833,-0.5 889.167,-0.5 891.5,-0.5C 888.064,4.26499 884.898,9.26499 882,14.5C 880.644,15.3802 879.144,15.7135 877.5,15.5C 876.648,18.2234 875.481,20.89 874,23.5C 846.658,58.3367 816.491,90.3367 783.5,119.5C 783.5,118.167 783.5,116.833 783.5,115.5C 784.833,115.5 786.167,115.5 787.5,115.5C 787.5,114.167 787.5,112.833 787.5,111.5C 786.5,111.5 785.5,111.5 784.5,111.5C 788.789,106.598 793.622,102.265 799,98.5C 799.483,97.552 799.649,96.552 799.5,95.5C 800.675,95.719 801.675,95.3857 802.5,94.5C 805.217,91.1081 808.384,88.1081 812,85.5C 813.694,83.7604 814.861,81.7604 815.5,79.5C 816.675,79.719 817.675,79.3857 818.5,78.5C 842.045,53.4103 864.045,27.077 884.5,-0.5 Z"/></g>
<g><path style="opacity:1" fill="#ed9b89" d="M 783.5,22.5 C 779.193,25.8756 775.193,29.7089 771.5,34C 770.255,34.7914 768.922,35.2914 767.5,35.5C 768.265,33.071 769.931,31.7377 772.5,31.5C 772.561,29.4078 773.561,27.9078 775.5,27C 775.167,26.6667 774.833,26.3333 774.5,26C 777.287,24.2268 780.287,23.0601 783.5,22.5 Z"/></g>
<g><path style="opacity:1" fill="#f2c2b3" d="M 764.5,39.5 C 763.055,41.0627 761.389,42.396 759.5,43.5C 760.129,41.0029 761.796,39.6696 764.5,39.5 Z"/></g>
<g><path style="opacity:1" fill="#c8f1f4" d="M 1013.5,41.5 C 1011.79,43.8818 1009.79,45.8818 1007.5,47.5C 1007.61,44.6181 1008.77,42.2847 1011,40.5C 1011.67,41.2524 1012.5,41.5858 1013.5,41.5 Z"/></g>
<g><path style="opacity:1" fill="#facbba" d="M 751.5,49.5 C 748.113,53.0751 744.113,55.7417 739.5,57.5C 740.29,56.2058 741.29,55.0391 742.5,54C 745.418,52.2267 748.418,50.7267 751.5,49.5 Z"/></g>
<g><path style="opacity:1" fill="#e39882" d="M 728.5,63.5 C 725.992,65.9236 722.992,67.5903 719.5,68.5C 720.936,66.917 722.602,65.417 724.5,64C 725.793,63.51 727.127,63.3433 728.5,63.5 Z"/></g>
<g><path style="opacity:1" fill="#f2927d" d="M 719.5,69.5 C 712.848,72.0636 706.515,75.3969 700.5,79.5C 696.469,81.7362 692.136,83.4029 687.5,84.5C 687.577,83.2502 688.244,82.4169 689.5,82C 691.167,81.6667 692.833,81.3333 694.5,81C 694.167,80.6667 693.833,80.3333 693.5,80C 696.219,74.8678 700.052,73.3678 705,75.5C 709.489,72.6161 714.323,70.6161 719.5,69.5 Z"/></g>
<g><path style="opacity:1" fill="#e19784" d="M 684.5,85.5 C 680.541,87.9734 676.207,89.6401 671.5,90.5C 675.415,87.8598 679.748,86.1931 684.5,85.5 Z"/></g>
<g><path style="opacity:1" fill="#fdefe3" d="M 700.5,79.5 C 700.67,80.8221 700.337,81.9887 699.5,83C 696.692,83.0186 694.359,84.0186 692.5,86C 688.683,86.4715 685.017,87.4715 681.5,89C 677.168,92.5026 672.168,94.0026 666.5,93.5C 668.072,92.3127 669.739,91.3127 671.5,90.5C 676.207,89.6401 680.541,87.9734 684.5,85.5C 685.791,85.7373 686.791,85.404 687.5,84.5C 692.136,83.4029 696.469,81.7362 700.5,79.5 Z"/></g>
<g><path style="opacity:1" fill="#e69277" d="M 447.5,97.5 C 431.491,97.5003 415.491,97.8336 399.5,98.5C 408.615,96.9649 417.948,96.2982 427.5,96.5C 434.342,96.5004 441.009,96.8337 447.5,97.5 Z"/></g>
<g><path style="opacity:1" fill="#e5a08b" d="M 447.5,97.5 C 455.729,97.1779 463.729,97.8446 471.5,99.5C 463.284,99.6768 455.284,99.0101 447.5,97.5 Z"/></g>
<g><path style="opacity:1" fill="#fdd7c8" d="M 399.5,99.5 C 393.709,100.979 387.709,101.979 381.5,102.5C 383.476,100.989 385.809,100.156 388.5,100C 392.152,99.5014 395.818,99.3347 399.5,99.5 Z"/></g>
<g><path style="opacity:1" fill="#eeaf99" d="M 479.5,100.5 C 485.098,100.156 490.432,100.822 495.5,102.5C 489.979,102.218 484.646,101.551 479.5,100.5 Z"/></g>
<g><path style="opacity:1" fill="#e5a390" d="M 639.5,100.5 C 634.51,102.622 629.177,103.622 623.5,103.5C 628.49,101.378 633.823,100.378 639.5,100.5 Z"/></g>
<g><path style="opacity:1" fill="#ee9783" d="M 615.5,104.5 C 611.796,106.091 607.796,106.924 603.5,107C 591.523,108 579.523,108.5 567.5,108.5C 553.905,108.947 540.571,107.947 527.5,105.5C 556.862,107.101 586.195,106.767 615.5,104.5 Z"/></g>
<g><path style="opacity:1" fill="#fde3d6" d="M 379.5,102.5 C 378.666,103.748 377.333,104.415 375.5,104.5C 367.99,105.02 360.657,106.354 353.5,108.5C 356.254,107.359 358.921,106.025 361.5,104.5C 367.58,104.483 373.58,103.817 379.5,102.5 Z"/></g>
<g><path style="opacity:1" fill="#ea9782" d="M 361.5,104.5 C 358.921,106.025 356.254,107.359 353.5,108.5C 349.583,108.628 345.917,109.628 342.5,111.5C 342.167,111.5 341.833,111.5 341.5,111.5C 341.511,109.983 342.177,108.816 343.5,108C 349.69,107.313 355.69,106.146 361.5,104.5 Z"/></g>
<g><path style="opacity:1" fill="#fdf3e7" d="M 341.5,111.5 C 341.833,111.5 342.167,111.5 342.5,111.5C 342.611,112.117 342.944,112.617 343.5,113C 340.746,115.646 337.579,116.48 334,115.5C 331.888,116.608 330.054,118.108 328.5,120C 325.5,120.333 322.5,120.667 319.5,121C 313.806,124.013 307.806,126.18 301.5,127.5C 302.833,126.5 304.167,125.5 305.5,124.5C 317.319,119.549 329.319,115.216 341.5,111.5 Z"/></g>
<g><path style="opacity:1" fill="#f2927d" d="M 305.5,124.5 C 304.167,125.5 302.833,126.5 301.5,127.5C 300.127,127.343 298.793,127.51 297.5,128C 294.314,130.116 290.98,131.95 287.5,133.5C 288.348,131.907 289.681,130.74 291.5,130C 292.448,129.517 293.448,129.351 294.5,129.5C 294.162,126.843 294.829,124.51 296.5,122.5C 298.11,123.552 299.777,123.552 301.5,122.5C 302.867,123.225 304.2,123.892 305.5,124.5 Z"/></g>
<g><path style="opacity:1" fill="#b5f6f7" d="M 946.5,120.5 C 946.065,123.157 945.065,125.491 943.5,127.5C 943.166,124.509 944.166,122.176 946.5,120.5 Z"/></g>
<g><path style="opacity:1" fill="#e29e88" d="M 287.5,133.5 C 282.175,136.497 276.841,139.497 271.5,142.5C 275.877,137.974 281.21,134.974 287.5,133.5 Z"/></g>
<g><path style="opacity:1" fill="#c7fbfc" d="M 940.5,143.5 C 940.127,151.371 941.127,159.038 943.5,166.5C 941.306,164.779 940.139,162.445 940,159.5C 939.183,153.984 939.349,148.65 940.5,143.5 Z"/></g>
<g><path style="opacity:1" fill="#f4bea4" d="M 784.5,111.5 C 785.5,111.5 786.5,111.5 787.5,111.5C 787.5,112.833 787.5,114.167 787.5,115.5C 786.167,115.5 784.833,115.5 783.5,115.5C 783.5,116.833 783.5,118.167 783.5,119.5C 773.75,127.555 763.75,135.388 753.5,143C 735.112,155.198 715.778,165.865 695.5,175C 692.854,175.497 690.187,175.664 687.5,175.5C 687.64,177.124 686.973,178.29 685.5,179C 660.098,187.247 634.098,192.747 607.5,195.5C 605.257,194.188 602.59,193.522 599.5,193.5C 591.333,194.521 583.333,194.521 575.5,193.5C 582.289,192.125 589.289,191.458 596.5,191.5C 608.229,191.294 619.896,190.461 631.5,189C 645.424,185.988 658.757,181.821 671.5,176.5C 683.97,171.838 696.303,166.671 708.5,161C 712.06,159.763 715.727,159.263 719.5,159.5C 719.238,158.022 719.571,156.689 720.5,155.5C 735.321,147.589 749.321,138.423 762.5,128C 764.134,127.506 765.801,127.34 767.5,127.5C 767.238,126.022 767.571,124.689 768.5,123.5C 773.863,119.491 779.196,115.491 784.5,111.5 Z"/></g>
<g><path style="opacity:1" fill="#fdf0e3" d="M 239.5,166.5 C 239.762,167.978 239.429,169.311 238.5,170.5C 235.482,172.063 233.316,174.397 232,177.5C 231.667,177.167 231.333,176.833 231,176.5C 229.333,178.833 227.333,180.833 225,182.5C 224.667,182.167 224.333,181.833 224,181.5C 222.267,183.147 220.434,184.647 218.5,186C 215.159,193.847 209.492,199.013 201.5,201.5C 202.167,200.5 202.833,199.5 203.5,198.5C 212.298,190.202 220.965,181.702 229.5,173C 232.986,171.004 236.319,168.837 239.5,166.5 Z"/></g>
<g><path style="opacity:1" fill="#efc4b2" d="M 671.5,176.5 C 658.757,181.821 645.424,185.988 631.5,189C 619.896,190.461 608.229,191.294 596.5,191.5C 606.944,189.525 617.611,188.025 628.5,187C 642.856,183.482 657.189,179.982 671.5,176.5 Z"/></g>
<g><path style="opacity:1" fill="#f9eedb" d="M 495.5,194.5 C 479.671,195.496 463.671,196.163 447.5,196.5C 463.132,194.515 479.132,193.849 495.5,194.5 Z"/></g>
<g><path style="opacity:1" fill="#f8bca4" d="M 575.5,193.5 C 583.333,194.521 591.333,194.521 599.5,193.5C 602.59,193.522 605.257,194.188 607.5,195.5C 597.105,197.809 586.438,198.809 575.5,198.5C 548.653,198.355 521.986,199.022 495.5,200.5C 485.013,201.494 474.346,201.828 463.5,201.5C 452.799,200.904 442.132,199.904 431.5,198.5C 436.833,197.833 442.167,197.167 447.5,196.5C 463.671,196.163 479.671,195.496 495.5,194.5C 522.176,194.667 548.842,194.333 575.5,193.5 Z"/></g>
<g><path style="opacity:1" fill="#ecc0ab" d="M 575.5,198.5 C 563.364,199.984 551.031,200.65 538.5,200.5C 524.167,200.5 509.833,200.5 495.5,200.5C 521.986,199.022 548.653,198.355 575.5,198.5 Z"/></g>
<g><path style="opacity:1" fill="#e69884" d="M 203.5,198.5 C 202.833,199.5 202.167,200.5 201.5,201.5C 199.833,203.833 197.833,205.833 195.5,207.5C 196.682,205.186 198.015,202.852 199.5,200.5C 200.524,199.147 201.857,198.48 203.5,198.5 Z"/></g>
<g><path style="opacity:1" fill="#fef2e8" d="M 495.5,200.5 C 509.833,200.5 524.167,200.5 538.5,200.5C 513.856,202.491 488.856,203.157 463.5,202.5C 463.5,202.167 463.5,201.833 463.5,201.5C 474.346,201.828 485.013,201.494 495.5,200.5 Z"/></g>
<g><path style="opacity:1" fill="#b2efec" d="M 1007.5,197.5 C 1008.22,197.918 1008.72,198.584 1009,199.5C 1009.82,207.677 1009.66,215.677 1008.5,223.5C 1008.71,214.8 1008.38,206.133 1007.5,197.5 Z"/></g>
<g><path style="opacity:1" fill="#ea927f" d="M 190.5,212.5 C 186.454,216.217 182.454,219.884 178.5,223.5C 180.604,217.728 184.604,214.061 190.5,212.5 Z"/></g>
<g><path style="opacity:1" fill="#fcf2e7" d="M 201.5,201.5 C 201.509,203.308 201.009,204.975 200,206.5C 194.755,212.749 189.088,218.749 183,224.5C 181.697,229.49 178.53,232.157 173.5,232.5C 173.719,233.675 173.386,234.675 172.5,235.5C 169.007,238.16 166.007,241.327 163.5,245C 161.482,245.505 159.482,246.005 157.5,246.5C 158.167,245.5 158.833,244.5 159.5,243.5C 166.53,237.471 172.863,230.804 178.5,223.5C 182.454,219.884 186.454,216.217 190.5,212.5C 191.93,210.614 193.597,208.947 195.5,207.5C 197.833,205.833 199.833,203.833 201.5,201.5 Z"/></g>
<g><path style="opacity:1" fill="#ec9680" d="M 159.5,243.5 C 158.833,244.5 158.167,245.5 157.5,246.5C 153.437,250.892 148.77,254.558 143.5,257.5C 144.37,255.364 145.703,253.531 147.5,252C 147.167,251.667 146.833,251.333 146.5,251C 147.5,250.667 148.5,250.333 149.5,250C 148.167,249.333 148.167,248.667 149.5,248C 150.793,247.51 152.127,247.343 153.5,247.5C 153.5,245.833 153.5,244.167 153.5,242.5C 155.5,242.833 157.5,243.167 159.5,243.5 Z"/></g>
<g><path style="opacity:1" fill="#ef9684" d="M 143.5,257.5 C 143.586,258.496 143.252,259.329 142.5,260C 137.602,263.745 132.602,267.245 127.5,270.5C 127.5,269.167 127.5,267.833 127.5,266.5C 132.767,265.95 136.433,263.283 138.5,258.5C 140.045,257.548 141.712,257.215 143.5,257.5 Z"/></g>
<g><path style="opacity:1" fill="#e99c89" d="M 126.5,271.5 C 124.733,273.89 122.4,275.557 119.5,276.5C 120.502,274.989 121.169,273.322 121.5,271.5C 123.167,271.5 124.833,271.5 126.5,271.5 Z"/></g>
<g><path style="opacity:1" fill="#37c7c4" d="M 1004.5,239.5 C 1005.59,239.62 1006.25,240.287 1006.5,241.5C 1004.26,248.382 1001.59,255.049 998.5,261.5C 999.833,264.167 1001.17,266.833 1002.5,269.5C 1002.17,270.167 1001.83,270.833 1001.5,271.5C 1000.05,270.15 999.383,268.484 999.5,266.5C 998.448,266.351 997.448,266.517 996.5,267C 988.095,277.858 981.761,289.691 977.5,302.5C 976.005,303.705 974.672,303.705 973.5,302.5C 975.433,296.63 977.933,290.963 981,285.5C 990.222,270.72 998.055,255.387 1004.5,239.5 Z"/></g>
<g><path style="opacity:1" fill="#f29078" d="M 111.5,281.5 C 101.317,287.304 90.6501,292.304 79.5,296.5C 76.4816,296.335 73.4816,296.502 70.5,297C 69.7476,297.671 69.4142,298.504 69.5,299.5C 62.3623,301.783 55.029,303.116 47.5,303.5C 48.2297,301.955 49.563,301.122 51.5,301C 56.511,300.415 61.511,299.749 66.5,299C 70.1282,295.857 74.4615,294.691 79.5,295.5C 79.3285,293.508 79.9951,291.842 81.5,290.5C 89.3654,288.993 96.6988,286.159 103.5,282C 106.146,281.503 108.813,281.336 111.5,281.5 Z"/></g>
<g><path style="opacity:1" fill="#ea9f8b" d="M 79.5,296.5 C 76.2737,297.489 72.9404,298.489 69.5,299.5C 69.4142,298.504 69.7476,297.671 70.5,297C 73.4816,296.502 76.4816,296.335 79.5,296.5 Z"/></g>
<g><path style="opacity:1" fill="#ec9884" d="M -0.5,297.5 C -0.5,297.167 -0.5,296.833 -0.5,296.5C 2.75298,296.562 5.75298,297.396 8.5,299C 12.8333,299.333 17.1667,299.667 21.5,300C 23.5444,300.498 24.8777,301.665 25.5,303.5C 16.6195,302.447 7.95284,300.447 -0.5,297.5 Z"/></g>
<g><path style="opacity:1" fill="#f3bfa7" d="M 431.5,198.5 C 442.132,199.904 452.799,200.904 463.5,201.5C 463.5,201.833 463.5,202.167 463.5,202.5C 426.692,202.895 391.026,209.395 356.5,222C 344.235,228.315 331.902,234.482 319.5,240.5C 290.264,258.219 261.93,277.386 234.5,298C 214.703,310.887 194.703,323.22 174.5,335C 166.53,338.433 158.864,342.433 151.5,347C 144.835,349.758 138.168,352.425 131.5,355C 128.529,355.794 125.529,356.461 122.5,357C 111.405,362.193 99.7381,365.693 87.5,367.5C 87.4701,366.503 87.9701,365.836 89,365.5C 92.8882,364.689 96.7215,363.689 100.5,362.5C 100.709,361.914 101.043,361.414 101.5,361C 99.5273,360.505 97.5273,360.338 95.5,360.5C 101.67,357.708 108.003,355.375 114.5,353.5C 118.661,351.937 122.995,351.271 127.5,351.5C 127.5,350.5 127.5,349.5 127.5,348.5C 129.342,348.277 131.175,347.943 133,347.5C 153.094,339.037 172.594,329.37 191.5,318.5C 195.219,314.973 199.553,312.473 204.5,311C 223.462,296.373 243.129,283.04 263.5,271C 267.556,266.149 272.556,262.649 278.5,260.5C 280.83,257.478 283.83,255.811 287.5,255.5C 287.5,254.5 287.5,253.5 287.5,252.5C 288.552,252.649 289.552,252.483 290.5,252C 303.852,243.308 317.518,234.975 331.5,227C 363.025,211.327 396.358,201.827 431.5,198.5 Z"/></g>
<g><path style="opacity:1" fill="#daf8fb" d="M 1199.5,355.5 C 1199.5,356.5 1199.5,357.5 1199.5,358.5C 1197.98,358.511 1196.82,359.177 1196,360.5C 1191.97,360.299 1189.14,362.299 1187.5,366.5C 1186.68,367.386 1185.68,367.719 1184.5,367.5C 1186.95,363.211 1190.29,359.711 1194.5,357C 1196.02,355.991 1197.69,355.491 1199.5,355.5 Z"/></g>
<g><path style="opacity:1" fill="#fef1e7" d="M 114.5,353.5 C 108.003,355.375 101.67,357.708 95.5,360.5C 87.9794,360.205 80.6461,361.205 73.5,363.5C 59.5114,364.555 45.5114,364.722 31.5,364C 20.829,362.333 10.1623,360.833 -0.5,359.5C -0.5,359.167 -0.5,358.833 -0.5,358.5C 8.59864,357.95 17.432,358.95 26,361.5C 27.366,361.294 28.6994,360.96 30,360.5C 37.5392,361.784 45.2058,362.451 53,362.5C 60.1667,362.333 67.3333,362.167 74.5,362C 76.0762,361.56 77.4096,360.727 78.5,359.5C 79.1667,359.833 79.8333,360.167 80.5,360.5C 86.7894,359.152 93.1228,357.986 99.5,357C 100.5,356 101.5,355 102.5,354C 106.486,353.501 110.486,353.334 114.5,353.5 Z"/></g>
<g><path style="opacity:1" fill="#efc0ac" d="M -0.5,360.5 C -0.5,360.167 -0.5,359.833 -0.5,359.5C 10.1623,360.833 20.829,362.333 31.5,364C 45.5114,364.722 59.5114,364.555 73.5,363.5C 80.6461,361.205 87.9794,360.205 95.5,360.5C 93.369,361.314 91.0356,361.814 88.5,362C 88.9574,362.414 89.2907,362.914 89.5,363.5C 67.2029,365.402 44.8695,365.902 22.5,365C 14.7641,363.553 7.09747,362.053 -0.5,360.5 Z"/></g>
<g><path style="opacity:1" fill="#f8bba0" d="M -0.5,360.5 C 7.09747,362.053 14.7641,363.553 22.5,365C 44.8695,365.902 67.2029,365.402 89.5,363.5C 89.2907,362.914 88.9574,362.414 88.5,362C 91.0356,361.814 93.369,361.314 95.5,360.5C 97.5273,360.338 99.5273,360.505 101.5,361C 101.043,361.414 100.709,361.914 100.5,362.5C 96.7215,363.689 92.8882,364.689 89,365.5C 87.9701,365.836 87.4701,366.503 87.5,367.5C 84.8333,367.5 82.1667,367.5 79.5,367.5C 58.1757,368.531 36.8424,368.531 15.5,367.5C 10.0701,367.483 4.73675,366.817 -0.5,365.5C -0.5,363.833 -0.5,362.167 -0.5,360.5 Z"/></g>
<g><path style="opacity:1" fill="#f0c1ae" d="M 15.5,367.5 C 36.8424,368.531 58.1757,368.531 79.5,367.5C 77.3419,369.22 74.6752,370.053 71.5,370C 54.1432,370.799 36.8098,370.466 19.5,369C 17.9419,368.79 16.6085,368.29 15.5,367.5 Z"/></g>
<g><path style="opacity:1" fill="#d3f8fa" d="M 987.5,390.5 C 982.871,395.125 977.205,396.625 970.5,395C 969.584,394.722 968.918,394.222 968.5,393.5C 975.13,394.09 981.464,393.09 987.5,390.5 Z"/></g>
<g><path style="opacity:1" fill="#e4fbfc" d="M 1174.5,391.5 C 1173.42,397.411 1172.25,403.411 1171,409.5C 1169.99,410.337 1168.82,410.67 1167.5,410.5C 1167.42,413.682 1166.08,416.015 1163.5,417.5C 1167.19,408.757 1170.85,400.09 1174.5,391.5 Z"/></g>
<g><path style="opacity:1" fill="#82e5eb" d="M 1151.5,429.5 C 1148.3,431.03 1144.8,431.696 1141,431.5C 1138.31,431.497 1135.81,431.164 1133.5,430.5C 1139.54,430.64 1145.54,430.307 1151.5,429.5 Z"/></g>
<g><path style="opacity:1" fill="#fcfbf9" d="M 1199.5,735.5 C 1199.5,857.167 1199.5,978.833 1199.5,1100.5C 1194.19,1099.35 1189.19,1097.35 1184.5,1094.5C 1165.44,1080.22 1155.78,1061.05 1155.5,1037C 1155.53,1029.8 1156.03,1022.63 1157,1015.5C 1161.57,993.983 1166.9,972.649 1173,951.5C 1175.65,938.282 1177.65,924.948 1179,911.5C 1179.58,869.786 1181.25,828.119 1184,786.5C 1185.33,779.177 1186.67,771.843 1188,764.5C 1190.38,758.29 1192.38,751.957 1194,745.5C 1195.84,741.974 1197.67,738.64 1199.5,735.5 Z"/></g>
<g><path style="opacity:1" fill="#badcd4" d="M 1199.5,721.5 C 1199.5,726.167 1199.5,730.833 1199.5,735.5C 1197.67,738.64 1195.84,741.974 1194,745.5C 1192.38,751.957 1190.38,758.29 1188,764.5C 1186.67,771.843 1185.33,779.177 1184,786.5C 1181.25,828.119 1179.58,869.786 1179,911.5C 1177.65,924.948 1175.65,938.282 1173,951.5C 1166.9,972.649 1161.57,993.983 1157,1015.5C 1156.03,1022.63 1155.53,1029.8 1155.5,1037C 1155.78,1061.05 1165.44,1080.22 1184.5,1094.5C 1189.19,1097.35 1194.19,1099.35 1199.5,1100.5C 1199.5,1102.5 1199.5,1104.5 1199.5,1106.5C 1176.68,1098.85 1161.18,1083.51 1153,1060.5C 1149.91,1042.88 1149.75,1025.21 1152.5,1007.5C 1158.27,986.269 1163.77,964.936 1169,943.5C 1170.09,933.799 1171.42,924.132 1173,914.5C 1174.5,881.522 1175.5,848.522 1176,815.5C 1177,804.833 1178,794.167 1179,783.5C 1182,770.809 1185,758.142 1188,745.5C 1191.54,737.269 1195.37,729.269 1199.5,721.5 Z"/></g>
<g><path style="opacity:1" fill="#f4d387" d="M -0.5,1266.5 C 12.8461,1266.33 26.1794,1266.67 39.5,1267.5C 47.7086,1268.75 55.7086,1270.42 63.5,1272.5C 55.4097,1271.66 47.4097,1270.49 39.5,1269C 26.1708,1268.5 12.8375,1268.33 -0.5,1268.5C -0.5,1267.83 -0.5,1267.17 -0.5,1266.5 Z"/></g>
<g><path style="opacity:1" fill="#fccc6f" d="M -0.5,1268.5 C 12.8375,1268.33 26.1708,1268.5 39.5,1269C 47.4097,1270.49 55.4097,1271.66 63.5,1272.5C 68.3386,1275.38 73.6719,1277.05 79.5,1277.5C 89.8081,1282.39 99.4748,1288.39 108.5,1295.5C 108.933,1298.29 110.266,1300.62 112.5,1302.5C 115.22,1303.86 117.886,1305.19 120.5,1306.5C 120.247,1308.83 120.914,1310.83 122.5,1312.5C 122.023,1313.48 121.357,1314.31 120.5,1315C 120.833,1315.33 121.167,1315.67 121.5,1316C 118.785,1316.87 117.452,1318.71 117.5,1321.5C 120.173,1320.48 122.673,1319.15 125,1317.5C 127.009,1317.76 128.843,1318.42 130.5,1319.5C 135.078,1325.65 139.411,1331.98 143.5,1338.5C 143.5,1340.17 143.5,1341.83 143.5,1343.5C 144.5,1343.5 145.5,1343.5 146.5,1343.5C 147.315,1347.14 148.148,1350.81 149,1354.5C 151.759,1357.23 153.426,1360.56 154,1364.5C 154.708,1365.38 155.542,1366.05 156.5,1366.5C 158.999,1373.16 161.499,1379.82 164,1386.5C 164.494,1388.13 164.66,1389.8 164.5,1391.5C 163.886,1395.14 163.552,1398.8 163.5,1402.5C 164.5,1402.5 165.5,1402.5 166.5,1402.5C 167.369,1406.46 168.202,1410.46 169,1414.5C 169.377,1415.94 170.21,1416.94 171.5,1417.5C 171.334,1422.18 171.501,1426.85 172,1431.5C 172.949,1433.09 174.115,1434.43 175.5,1435.5C 175.5,1436.83 175.5,1438.17 175.5,1439.5C 175.899,1445.07 176.899,1450.4 178.5,1455.5C 178.833,1455.5 179.167,1455.5 179.5,1455.5C 179.222,1477.26 181.556,1498.59 186.5,1519.5C 186.5,1535.5 186.5,1551.5 186.5,1567.5C 185.691,1569.29 185.191,1571.29 185,1573.5C 184.333,1574.17 183.667,1574.83 183,1575.5C 182.553,1582.6 181.72,1589.6 180.5,1596.5C 179.369,1602.07 177.702,1607.41 175.5,1612.5C 175.715,1614.18 175.048,1615.18 173.5,1615.5C 171.286,1619.58 168.786,1623.58 166,1627.5C 165.51,1628.79 165.343,1630.13 165.5,1631.5C 164.596,1632.21 164.263,1633.21 164.5,1634.5C 112.167,1634.5 59.8333,1634.5 7.5,1634.5C 7.5,1633.5 7.5,1632.5 7.5,1631.5C 8.5,1631.5 9.5,1631.5 10.5,1631.5C 10.3433,1630.13 10.51,1628.79 11,1627.5C 13.8392,1624.59 16.5059,1621.59 19,1618.5C 19.4828,1617.55 19.6495,1616.55 19.5,1615.5C 20.5,1615.5 21.5,1615.5 22.5,1615.5C 24.2543,1612.74 26.5876,1610.74 29.5,1609.5C 29.3505,1608.45 29.5172,1607.45 30,1606.5C 32,1605.17 34,1603.83 36,1602.5C 36.1138,1598.43 37.2805,1594.76 39.5,1591.5C 45.7074,1580.42 51.374,1569.09 56.5,1557.5C 57.1499,1557.2 57.8165,1556.86 58.5,1556.5C 59.3214,1553.55 59.8214,1550.55 60,1547.5C 63.1015,1544.22 64.2682,1540.22 63.5,1535.5C 63.5,1532.83 63.5,1530.17 63.5,1527.5C 64.3149,1526.57 65.1482,1525.57 66,1524.5C 66.8246,1514.66 66.658,1504.99 65.5,1495.5C 65.0372,1492.67 64.3705,1490 63.5,1487.5C 63.6646,1484.48 63.498,1481.48 63,1478.5C 62.6174,1477.94 62.1174,1477.61 61.5,1477.5C 61.6646,1474.48 61.498,1471.48 61,1468.5C 60.3028,1466.42 59.1361,1464.75 57.5,1463.5C 55.6732,1461.03 54.3398,1458.36 53.5,1455.5C 51.6697,1450 49.6697,1444.66 47.5,1439.5C 46.1667,1439.5 44.8333,1439.5 43.5,1439.5C 43.7373,1438.21 43.404,1437.21 42.5,1436.5C 39.8774,1431.22 36.2107,1426.88 31.5,1423.5C 30.2153,1421.55 28.5486,1419.88 26.5,1418.5C 26.0472,1417.54 25.3805,1416.71 24.5,1416C 21.1675,1415 18.1675,1413.5 15.5,1411.5C 13.6597,1409.33 11.3263,1408 8.5,1407.5C 6.68962,1403.69 3.68962,1402.02 -0.5,1402.5C -0.5,1357.83 -0.5,1313.17 -0.5,1268.5 Z"/></g>
<g><path style="opacity:1" fill="#f7d69c" d="M 63.5,1272.5 C 69.2735,1273.07 74.6068,1274.74 79.5,1277.5C 73.6719,1277.05 68.3386,1275.38 63.5,1272.5 Z"/></g>
<g><path style="opacity:1" fill="#f5d588" d="M 108.5,1295.5 C 109.5,1295.5 110.5,1295.5 111.5,1295.5C 114.051,1299.4 117.051,1303.07 120.5,1306.5C 117.886,1305.19 115.22,1303.86 112.5,1302.5C 110.266,1300.62 108.933,1298.29 108.5,1295.5 Z"/></g>
<g><path style="opacity:1" fill="#f9cf80" d="M 120.5,1306.5 C 122.285,1308.95 124.618,1310.62 127.5,1311.5C 128.026,1314.35 129.026,1317.02 130.5,1319.5C 128.843,1318.42 127.009,1317.76 125,1317.5C 122.673,1319.15 120.173,1320.48 117.5,1321.5C 117.452,1318.71 118.785,1316.87 121.5,1316C 121.167,1315.67 120.833,1315.33 120.5,1315C 121.357,1314.31 122.023,1313.48 122.5,1312.5C 120.914,1310.83 120.247,1308.83 120.5,1306.5 Z"/></g>
<g><path style="opacity:1" fill="#f9efc9" d="M 143.5,1338.5 C 144.5,1338.5 145.5,1338.5 146.5,1338.5C 146.5,1340.17 146.5,1341.83 146.5,1343.5C 145.5,1343.5 144.5,1343.5 143.5,1343.5C 143.5,1341.83 143.5,1340.17 143.5,1338.5 Z"/></g>
<g><path style="opacity:1" fill="#f7d79e" d="M 146.5,1343.5 C 147.315,1344.43 148.148,1345.43 149,1346.5C 151.663,1353.03 154.163,1359.7 156.5,1366.5C 155.542,1366.05 154.708,1365.38 154,1364.5C 153.426,1360.56 151.759,1357.23 149,1354.5C 148.148,1350.81 147.315,1347.14 146.5,1343.5 Z"/></g>
<g><path style="opacity:1" fill="#fdf6e3" d="M 165.5,1391.5 C 166.496,1391.41 167.329,1391.75 168,1392.5C 168.333,1394.83 168.667,1397.17 169,1399.5C 170.707,1397.09 171.54,1394.42 171.5,1391.5C 172.675,1391.28 173.675,1391.61 174.5,1392.5C 171.898,1396.74 170.564,1401.41 170.5,1406.5C 171.828,1412.14 172.828,1417.8 173.5,1423.5C 172.833,1421.5 172.167,1419.5 171.5,1417.5C 170.415,1408.5 168.415,1399.83 165.5,1391.5 Z"/></g>
<g><path style="opacity:1" fill="#f4d07d" d="M 164.5,1391.5 C 164.833,1391.5 165.167,1391.5 165.5,1391.5C 168.415,1399.83 170.415,1408.5 171.5,1417.5C 170.21,1416.94 169.377,1415.94 169,1414.5C 168.202,1410.46 167.369,1406.46 166.5,1402.5C 165.5,1402.5 164.5,1402.5 163.5,1402.5C 163.552,1398.8 163.886,1395.14 164.5,1391.5 Z"/></g>
<g><path style="opacity:1" fill="#f8e1ae" d="M -0.5,1402.5 C 3.68962,1402.02 6.68962,1403.69 8.5,1407.5C 5.50696,1406.51 2.50696,1405.51 -0.5,1404.5C -0.5,1403.83 -0.5,1403.17 -0.5,1402.5 Z"/></g>
<g><path style="opacity:1" fill="#fcfbf9" d="M -0.5,1404.5 C 2.50696,1405.51 5.50696,1406.51 8.5,1407.5C 11.3263,1408 13.6597,1409.33 15.5,1411.5C 17.9373,1415.56 21.604,1417.9 26.5,1418.5C 28.5486,1419.88 30.2153,1421.55 31.5,1423.5C 31.5,1424.83 31.5,1426.17 31.5,1427.5C 32.552,1427.35 33.552,1427.52 34.5,1428C 35.9245,1430.1 37.2578,1432.27 38.5,1434.5C 39.5769,1435.71 40.9102,1436.37 42.5,1436.5C 41.4573,1442.11 43.624,1445.44 49,1446.5C 49.0221,1450.33 50.5221,1453.33 53.5,1455.5C 54.3398,1458.36 55.6732,1461.03 57.5,1463.5C 59.0535,1468.15 60.3868,1472.82 61.5,1477.5C 62.1174,1477.61 62.6174,1477.94 63,1478.5C 63.498,1481.48 63.6646,1484.48 63.5,1487.5C 64.2384,1498.15 64.5717,1508.82 64.5,1519.5C 63.5269,1521.95 63.1936,1524.61 63.5,1527.5C 63.5,1530.17 63.5,1532.83 63.5,1535.5C 61.6925,1538.47 60.1925,1541.8 59,1545.5C 58.9251,1549.75 58.0918,1553.75 56.5,1557.5C 51.374,1569.09 45.7074,1580.42 39.5,1591.5C 37.1423,1593.17 35.4757,1595.5 34.5,1598.5C 33.675,1599.39 32.675,1599.72 31.5,1599.5C 31.6567,1600.87 31.49,1602.21 31,1603.5C 26.915,1606.69 24.0817,1610.69 22.5,1615.5C 21.5,1615.5 20.5,1615.5 19.5,1615.5C 19.6495,1616.55 19.4828,1617.55 19,1618.5C 16.5059,1621.59 13.8392,1624.59 11,1627.5C 10.51,1628.79 10.3433,1630.13 10.5,1631.5C 9.5,1631.5 8.5,1631.5 7.5,1631.5C 7.5,1632.5 7.5,1633.5 7.5,1634.5C 4.83333,1634.5 2.16667,1634.5 -0.5,1634.5C -0.5,1557.83 -0.5,1481.17 -0.5,1404.5 Z"/></g>
<g><path style="opacity:1" fill="#feeecd" d="M 15.5,1411.5 C 18.1675,1413.5 21.1675,1415 24.5,1416C 25.3805,1416.71 26.0472,1417.54 26.5,1418.5C 21.604,1417.9 17.9373,1415.56 15.5,1411.5 Z"/></g>
<g><path style="opacity:1" fill="#b4dbd4" d="M 1199.5,1419.5 C 1199.5,1491.17 1199.5,1562.83 1199.5,1634.5C 880.167,1634.5 560.833,1634.5 241.5,1634.5C 247.646,1629.49 252.146,1623.16 255,1615.5C 257.059,1601.77 261.225,1588.77 267.5,1576.5C 275.861,1565.98 286.361,1558.32 299,1553.5C 319.101,1548.35 339.267,1548.19 359.5,1553C 378.765,1558.55 398.098,1563.88 417.5,1569C 432.75,1571.37 448.084,1572.04 463.5,1571C 486.091,1567.86 507.424,1561.03 527.5,1550.5C 543.463,1541.85 559.13,1532.68 574.5,1523C 575.337,1521.99 575.67,1520.82 575.5,1519.5C 577.655,1519.63 579.655,1519.13 581.5,1518C 586.665,1513.58 592.332,1509.92 598.5,1507C 601.901,1504.43 605.234,1501.6 608.5,1498.5C 622.121,1489.68 635.787,1480.85 649.5,1472C 651.473,1471.5 653.473,1471.34 655.5,1471.5C 655.5,1470.5 655.5,1469.5 655.5,1468.5C 661.593,1465.62 667.593,1462.45 673.5,1459C 677.97,1456.92 682.636,1455.76 687.5,1455.5C 687.5,1454.5 687.5,1453.5 687.5,1452.5C 696.409,1449.85 705.409,1447.35 714.5,1445C 730.767,1442.03 747.1,1441.7 763.5,1444C 786.212,1449.12 807.212,1458.12 826.5,1471C 828.134,1471.49 829.801,1471.66 831.5,1471.5C 831.33,1472.82 831.663,1473.99 832.5,1475C 850.166,1487.19 868.166,1498.69 886.5,1509.5C 886.721,1510.73 887.388,1511.73 888.5,1512.5C 890.167,1513.17 891.833,1513.83 893.5,1514.5C 890.299,1519.9 891.965,1520.9 898.5,1517.5C 899.85,1518.95 901.516,1519.62 903.5,1519.5C 904.097,1525.33 901.43,1528 895.5,1527.5C 895.5,1530.17 895.5,1532.83 895.5,1535.5C 898.167,1535.5 900.833,1535.5 903.5,1535.5C 903.318,1533.41 903.652,1531.41 904.5,1529.5C 907.328,1528.46 909.995,1527.13 912.5,1525.5C 927.349,1528.77 942.182,1532.1 957,1535.5C 971.481,1534.03 985.981,1532.7 1000.5,1531.5C 1002.75,1532.37 1005.08,1532.71 1007.5,1532.5C 1007.5,1531.5 1007.5,1530.5 1007.5,1529.5C 1012.66,1529.25 1017.66,1528.25 1022.5,1526.5C 1023.3,1526.04 1023.63,1525.38 1023.5,1524.5C 1034.8,1519.24 1046.47,1514.41 1058.5,1510C 1081.45,1496.78 1101.28,1479.95 1118,1459.5C 1122.98,1448.87 1128.98,1438.87 1136,1429.5C 1144.47,1419.1 1155.47,1413.43 1169,1412.5C 1179.43,1413.75 1189.6,1416.09 1199.5,1419.5 Z"/></g>
<g><path style="opacity:1" fill="#f5d086" d="M 171.5,1417.5 C 172.167,1419.5 172.833,1421.5 173.5,1423.5C 174.793,1427.38 175.459,1431.38 175.5,1435.5C 174.115,1434.43 172.949,1433.09 172,1431.5C 171.501,1426.85 171.334,1422.18 171.5,1417.5 Z"/></g>
<g><path style="opacity:1" fill="#fef2d4" d="M 31.5,1423.5 C 36.2107,1426.88 39.8774,1431.22 42.5,1436.5C 40.9102,1436.37 39.5769,1435.71 38.5,1434.5C 37.2578,1432.27 35.9245,1430.1 34.5,1428C 33.552,1427.52 32.552,1427.35 31.5,1427.5C 31.5,1426.17 31.5,1424.83 31.5,1423.5 Z"/></g>
<g><path style="opacity:1" fill="#fdf0d3" d="M 42.5,1436.5 C 43.404,1437.21 43.7373,1438.21 43.5,1439.5C 44.8333,1439.5 46.1667,1439.5 47.5,1439.5C 49.6697,1444.66 51.6697,1450 53.5,1455.5C 50.5221,1453.33 49.0221,1450.33 49,1446.5C 43.624,1445.44 41.4573,1442.11 42.5,1436.5 Z"/></g>
<g><path style="opacity:1" fill="#f0ce8e" d="M 175.5,1439.5 C 177.701,1444.49 178.701,1449.82 178.5,1455.5C 176.899,1450.4 175.899,1445.07 175.5,1439.5 Z"/></g>
<g><path style="opacity:1" fill="#f8e2b6" d="M 57.5,1463.5 C 59.1361,1464.75 60.3028,1466.42 61,1468.5C 61.498,1471.48 61.6646,1474.48 61.5,1477.5C 60.3868,1472.82 59.0535,1468.15 57.5,1463.5 Z"/></g>
<g><path style="opacity:1" fill="#f4d385" d="M 179.5,1455.5 C 180.511,1466.28 182.177,1476.94 184.5,1487.5C 184.506,1498.21 185.173,1508.88 186.5,1519.5C 181.556,1498.59 179.222,1477.26 179.5,1455.5 Z"/></g>
<g><path style="opacity:1" fill="#fdf3d4" d="M 63.5,1487.5 C 64.3705,1490 65.0372,1492.67 65.5,1495.5C 65.8257,1503.68 65.4924,1511.68 64.5,1519.5C 64.5717,1508.82 64.2384,1498.15 63.5,1487.5 Z"/></g>
<g><path style="opacity:1" fill="#f3d28a" d="M 65.5,1495.5 C 66.658,1504.99 66.8246,1514.66 66,1524.5C 65.1482,1525.57 64.3149,1526.57 63.5,1527.5C 63.1936,1524.61 63.5269,1521.95 64.5,1519.5C 65.4924,1511.68 65.8257,1503.68 65.5,1495.5 Z"/></g>
<g><path style="opacity:1" fill="#feefce" d="M 184.5,1487.5 C 186.215,1497.96 187.215,1508.62 187.5,1519.5C 187.167,1519.5 186.833,1519.5 186.5,1519.5C 185.173,1508.88 184.506,1498.21 184.5,1487.5 Z"/></g>
<g><path style="opacity:1" fill="#bbdad4" d="M 886.5,1509.5 C 889.208,1511.35 892.208,1512.35 895.5,1512.5C 895.5,1513.5 895.5,1514.5 895.5,1515.5C 907.489,1520.33 919.822,1524.5 932.5,1528C 963.08,1533.39 993.413,1532.22 1023.5,1524.5C 1023.63,1525.38 1023.3,1526.04 1022.5,1526.5C 1017.66,1528.25 1012.66,1529.25 1007.5,1529.5C 1007.5,1530.5 1007.5,1531.5 1007.5,1532.5C 1005.08,1532.71 1002.75,1532.37 1000.5,1531.5C 985.981,1532.7 971.481,1534.03 957,1535.5C 942.182,1532.1 927.349,1528.77 912.5,1525.5C 909.995,1527.13 907.328,1528.46 904.5,1529.5C 903.652,1531.41 903.318,1533.41 903.5,1535.5C 900.833,1535.5 898.167,1535.5 895.5,1535.5C 895.5,1532.83 895.5,1530.17 895.5,1527.5C 901.43,1528 904.097,1525.33 903.5,1519.5C 901.516,1519.62 899.85,1518.95 898.5,1517.5C 891.965,1520.9 890.299,1519.9 893.5,1514.5C 891.833,1513.83 890.167,1513.17 888.5,1512.5C 887.388,1511.73 886.721,1510.73 886.5,1509.5 Z"/></g>
<g><path style="opacity:1" fill="#f3d392" d="M 186.5,1519.5 C 186.833,1519.5 187.167,1519.5 187.5,1519.5C 187.501,1527.51 187.834,1535.51 188.5,1543.5C 188.159,1551.68 187.492,1559.68 186.5,1567.5C 186.5,1551.5 186.5,1535.5 186.5,1519.5 Z"/></g>
<g><path style="opacity:1" fill="#f4d689" d="M 63.5,1535.5 C 64.2682,1540.22 63.1015,1544.22 60,1547.5C 59.8214,1550.55 59.3214,1553.55 58.5,1556.5C 57.8165,1556.86 57.1499,1557.2 56.5,1557.5C 58.0918,1553.75 58.9251,1549.75 59,1545.5C 60.1925,1541.8 61.6925,1538.47 63.5,1535.5 Z"/></g>
<g><path style="opacity:1" fill="#f4d185" d="M 186.5,1567.5 C 186.167,1572.83 185.833,1578.17 185.5,1583.5C 184.205,1587.97 182.538,1592.3 180.5,1596.5C 181.72,1589.6 182.553,1582.6 183,1575.5C 183.667,1574.83 184.333,1574.17 185,1573.5C 185.191,1571.29 185.691,1569.29 186.5,1567.5 Z"/></g>
<g><path style="opacity:1" fill="#f8d58e" d="M 39.5,1591.5 C 37.2805,1594.76 36.1138,1598.43 36,1602.5C 34,1603.83 32,1605.17 30,1606.5C 29.5172,1607.45 29.3505,1608.45 29.5,1609.5C 26.5876,1610.74 24.2543,1612.74 22.5,1615.5C 24.0817,1610.69 26.915,1606.69 31,1603.5C 31.49,1602.21 31.6567,1600.87 31.5,1599.5C 32.675,1599.72 33.675,1599.39 34.5,1598.5C 35.4757,1595.5 37.1423,1593.17 39.5,1591.5 Z"/></g>
<g><path style="opacity:1" fill="#fef6e4" d="M 185.5,1583.5 C 183.074,1592.57 181.574,1601.91 181,1611.5C 179.301,1612.41 177.467,1612.74 175.5,1612.5C 177.702,1607.41 179.369,1602.07 180.5,1596.5C 182.538,1592.3 184.205,1587.97 185.5,1583.5 Z"/></g>
<g><path style="opacity:1" fill="#fbe1b3" d="M 173.5,1615.5 C 172.172,1621.47 169.505,1626.81 165.5,1631.5C 165.343,1630.13 165.51,1628.79 166,1627.5C 168.786,1623.58 171.286,1619.58 173.5,1615.5 Z"/></g>
<text y="200" style="font-size:{{ font_size }}px;font-weight:bold;fill:{{ color2 }};">
    {%- for line in title|wrap(20) %}
    <tspan font-family="{{ font }}" text-anchor="middle" x="600" dx="0" dy="{{ font_size }}">{{ line }}</tspan>
    {%- endfor %}
</text>
<text y="1500" style="font-size:{{ font_size_author }}px;font-weight:bold;fill:{{ color2 }};">
	{%- for author in authors %}
	<tspan font-family="{{ font }}" text-anchor="middle" x="600" dx="0" dy="-{{ font_size_author }}">{{ author }}</tspan>
	{%- endfor %}
</text>
</svg>
